  0
SECTION
  2
HEADER
  9
$ACADVER
  1
AC1014
  9
$ACADMAINTVER
 70
     9
  9
$DWGCODEPAGE
  3
ANSI_932
  9
$INSBASE
 10
0.0
 20
0.0
 30
0.0
  9
$EXTMIN
 10
1.000000000000000E+20
 20
1.000000000000000E+20
 30
1.000000000000000E+20
  9
$EXTMAX
 10
-1.000000000000000E+20
 20
-1.000000000000000E+20
 30
-1.000000000000000E+20
  9
$LIMMIN
 10
0.0
 20
0.0
  9
$LIMMAX
 10
12.0
 20
9.0
  9
$ORTHOMODE
 70
     0
  9
$REGENMODE
 70
     1
  9
$FILLMODE
 70
     1
  9
$QTEXTMODE
 70
     0
  9
$MIRRTEXT
 70
     1
  9
$DRAGMODE
 70
     2
  9
$LTSCALE
 40
1.0
  9
$OSMODE
 70
    37
  9
$ATTMODE
 70
     1
  9
$TEXTSIZE
 40
0.2
  9
$TRACEWID
 40
0.05
  9
$TEXTSTYLE
  7
STANDARD
  9
$CLAYER
  8
0
  9
$CELTYPE
  6
BYLAYER
  9
$CECOLOR
 62
   256
  9
$CELTSCALE
 40
1.0
  9
$DELOBJ
 70
     1
  9
$DISPSILH
 70
     0
  9
$DIMSCALE
 40
1.0
  9
$DIMASZ
 40
0.18
  9
$DIMEXO
 40
0.0625
  9
$DIMDLI
 40
0.38
  9
$DIMRND
 40
0.0
  9
$DIMDLE
 40
0.0
  9
$DIMEXE
 40
0.18
  9
$DIMTP
 40
0.0
  9
$DIMTM
 40
0.0
  9
$DIMTXT
 40
0.18
  9
$DIMCEN
 40
0.09
  9
$DIMTSZ
 40
0.0
  9
$DIMTOL
 70
     0
  9
$DIMLIM
 70
     0
  9
$DIMTIH
 70
     1
  9
$DIMTOH
 70
     1
  9
$DIMSE1
 70
     0
  9
$DIMSE2
 70
     0
  9
$DIMTAD
 70
     0
  9
$DIMZIN
 70
     0
  9
$DIMBLK
  1

  9
$DIMASO
 70
     1
  9
$DIMSHO
 70
     1
  9
$DIMPOST
  1

  9
$DIMAPOST
  1

  9
$DIMALT
 70
     0
  9
$DIMALTD
 70
     2
  9
$DIMALTF
 40
25.4
  9
$DIMLFAC
 40
1.0
  9
$DIMTOFL
 70
     0
  9
$DIMTVP
 40
0.0
  9
$DIMTIX
 70
     0
  9
$DIMSOXD
 70
     0
  9
$DIMSAH
 70
     0
  9
$DIMBLK1
  1

  9
$DIMBLK2
  1

  9
$DIMSTYLE
  2
STANDARD
  9
$DIMCLRD
 70
     0
  9
$DIMCLRE
 70
     0
  9
$DIMCLRT
 70
     0
  9
$DIMTFAC
 40
1.0
  9
$DIMGAP
 40
0.09
  9
$DIMJUST
 70
     0
  9
$DIMSD1
 70
     0
  9
$DIMSD2
 70
     0
  9
$DIMTOLJ
 70
     1
  9
$DIMTZIN
 70
     0
  9
$DIMALTZ
 70
     0
  9
$DIMALTTZ
 70
     0
  9
$DIMFIT
 70
     3
  9
$DIMUPT
 70
     0
  9
$DIMUNIT
 70
     2
  9
$DIMDEC
 70
     4
  9
$DIMTDEC
 70
     4
  9
$DIMALTU
 70
     2
  9
$DIMALTTD
 70
     2
  9
$DIMTXSTY
  7
STANDARD
  9
$DIMAUNIT
 70
     0
  9
$LUNITS
 70
     2
  9
$LUPREC
 70
     4
  9
$SKETCHINC
 40
0.1
  9
$FILLETRAD
 40
0.5
  9
$AUNITS
 70
     0
  9
$AUPREC
 70
     0
  9
$MENU
  1
.
  9
$ELEVATION
 40
0.0
  9
$PELEVATION
 40
0.0
  9
$THICKNESS
 40
0.0
  9
$LIMCHECK
 70
     0
  9
$CHAMFERA
 40
0.5
  9
$CHAMFERB
 40
0.5
  9
$CHAMFERC
 40
1.0
  9
$CHAMFERD
 40
0.0
  9
$SKPOLY
 70
     0
  9
$TDCREATE
 40
2457109.681215278
  9
$TDUPDATE
 40
2457109.68121529
  9
$TDINDWG
 40
0.0000000116
  9
$TDUSRTIMER
 40
0.0000000116
  9
$USRTIMER
 70
     1
  9
$ANGBASE
 50
0.0
  9
$ANGDIR
 70
     0
  9
$PDMODE
 70
     0
  9
$PDSIZE
 40
0.0
  9
$PLINEWID
 40
0.0
  9
$COORDS
 70
     1
  9
$SPLFRAME
 70
     0
  9
$SPLINETYPE
 70
     6
  9
$SPLINESEGS
 70
     8
  9
$ATTDIA
 70
     0
  9
$ATTREQ
 70
     1
  9
$HANDLING
 70
     1
  9
$HANDSEED
  5
1A5
  9
$SURFTAB1
 70
     6
  9
$SURFTAB2
 70
     6
  9
$SURFTYPE
 70
     6
  9
$SURFU
 70
     6
  9
$SURFV
 70
     6
  9
$UCSNAME
  2

  9
$UCSORG
 10
0.0
 20
0.0
 30
0.0
  9
$UCSXDIR
 10
1.0
 20
0.0
 30
0.0
  9
$UCSYDIR
 10
0.0
 20
1.0
 30
0.0
  9
$PUCSNAME
  2

  9
$PUCSORG
 10
0.0
 20
0.0
 30
0.0
  9
$PUCSXDIR
 10
1.0
 20
0.0
 30
0.0
  9
$PUCSYDIR
 10
0.0
 20
1.0
 30
0.0
  9
$USERI1
 70
     0
  9
$USERI2
 70
     0
  9
$USERI3
 70
     0
  9
$USERI4
 70
     0
  9
$USERI5
 70
     0
  9
$USERR1
 40
0.0
  9
$USERR2
 40
0.0
  9
$USERR3
 40
0.0
  9
$USERR4
 40
0.0
  9
$USERR5
 40
0.0
  9
$WORLDVIEW
 70
     1
  9
$SHADEDGE
 70
     3
  9
$SHADEDIF
 70
    70
  9
$TILEMODE
 70
     1
  9
$MAXACTVP
 70
    64
  9
$PINSBASE
 10
0.0
 20
0.0
 30
0.0
  9
$PLIMCHECK
 70
     0
  9
$PEXTMIN
 10
1.000000000000000E+20
 20
1.000000000000000E+20
 30
1.000000000000000E+20
  9
$PEXTMAX
 10
-1.000000000000000E+20
 20
-1.000000000000000E+20
 30
-1.000000000000000E+20
  9
$PLIMMIN
 10
0.0
 20
0.0
  9
$PLIMMAX
 10
12.0
 20
9.0
  9
$UNITMODE
 70
     0
  9
$VISRETAIN
 70
     1
  9
$PLINEGEN
 70
     0
  9
$PSLTSCALE
 70
     1
  9
$TREEDEPTH
 70
  3020
  9
$PICKSTYLE
 70
     1
  9
$CMLSTYLE
  2
STANDARD
  9
$CMLJUST
 70
     0
  9
$CMLSCALE
 40
1.0
  9
$PROXYGRAPHICS
 70
     1
  9
$MEASUREMENT
 70
     0
  0
ENDSEC
  0
SECTION
  2
CLASSES
  0
CLASS
  1
ACDBDICTIONARYWDFLT
  2
AcDbDictionaryWithDefault
  3
ObjectDBX Classes
 90
        0
280
     0
281
     0
  0
CLASS
  1
VISUALSTYLE
  2
AcDbVisualStyle
  3
ObjectDBX Classes
 90
     4095
280
     0
281
     0
  0
CLASS
  1
XRECORD
  2
AcDbXrecord
  3
AutoCAD 2000
 90
        0
280
     0
281
     0
  0
CLASS
  1
LWPOLYLINE
  2
AcDbPolyline
  3
AutoCAD 2000
 90
        0
280
     0
281
     1
  0
CLASS
  1
HATCH
  2
AcDbHatch
  3
AutoCAD 2000
 90
        0
280
     0
281
     1
  0
CLASS
  1
ACDBPLACEHOLDER
  2
AcDbPlaceHolder
  3
ObjectDBX Classes
 90
        0
280
     0
281
     0
  0
CLASS
  1
LAYOUT
  2
AcDbLayout
  3
ObjectDBX Classes
 90
        0
280
     0
281
     0
  0
ENDSEC
  0
SECTION
  2
TABLES
  0
TABLE
  2
VPORT
  5
8
330
0
100
AcDbSymbolTable
 70
     1
  0
VPORT
  5
29
330
8
100
AcDbSymbolTableRecord
100
AcDbViewportTableRecord
  2
*ACTIVE
 70
     0
 10
0.0
 20
0.0
 11
1.0
 21
1.0
 12
0.0
 22
0.0
 13
0.0
 23
0.0
 14
0.5
 24
0.5
 15
0.5
 25
0.5
 16
0.0
 26
0.0
 36
1.0
 17
205.0761989504671
 27
155.463292739997
 37
0.0
 40
542.9792601181615
 41
1.038986582966049
 42
50.0
 43
0.0
 44
0.0
 50
0.0
 51
0.0
 71
     0
 72
   100
 73
     1
 74
     3
 75
     0
 76
     0
 77
     0
 78
     0
  0
ENDTAB
  0
TABLE
  2
LTYPE
  5
5
330
0
100
AcDbSymbolTable
 70
     1
  0
LTYPE
  5
14
330
5
100
AcDbSymbolTableRecord
100
AcDbLinetypeTableRecord
  2
BYBLOCK
 70
     0
  3

 72
    65
 73
     0
 40
0.0
  0
LTYPE
  5
15
330
5
100
AcDbSymbolTableRecord
100
AcDbLinetypeTableRecord
  2
BYLAYER
 70
     0
  3

 72
    65
 73
     0
 40
0.0
  0
LTYPE
  5
16
330
5
100
AcDbSymbolTableRecord
100
AcDbLinetypeTableRecord
  2
CONTINUOUS
 70
     0
  3
Solid line
 72
    65
 73
     0
 40
0.0
  0
ENDTAB
  0
TABLE
  2
LAYER
  5
2
330
0
100
AcDbSymbolTable
 70
     2
  0
LAYER
  5
10
330
2
100
AcDbSymbolTableRecord
100
AcDbLayerTableRecord
  2
0
 70
     0
 62
     7
  6
CONTINUOUS
  0
LAYER
  5
3B
330
2
100
AcDbSymbolTableRecord
100
AcDbLayerTableRecord
  2
MAKE2D$VISIBLE$LINES
 70
     0
 62
     7
  6
CONTINUOUS
  0
ENDTAB
  0
TABLE
  2
STYLE
  5
3
330
0
100
AcDbSymbolTable
 70
     1
  0
STYLE
  5
11
330
3
100
AcDbSymbolTableRecord
100
AcDbTextStyleTableRecord
  2
STANDARD
 70
     0
 40
0.0
 41
1.0
 50
0.0
 71
     0
 42
0.2
  3
txt
  4

  0
ENDTAB
  0
TABLE
  2
VIEW
  5
6
330
0
100
AcDbSymbolTable
 70
     0
  0
ENDTAB
  0
TABLE
  2
UCS
  5
7
330
0
100
AcDbSymbolTable
 70
     0
  0
ENDTAB
  0
TABLE
  2
APPID
  5
9
330
0
100
AcDbSymbolTable
 70
     1
  0
APPID
  5
12
330
9
100
AcDbSymbolTableRecord
100
AcDbRegAppTableRecord
  2
ACAD
 70
     0
  0
ENDTAB
  0
TABLE
  2
DIMSTYLE
  5
A
330
0
100
AcDbSymbolTable
 70
     1
  0
DIMSTYLE
105
27
330
A
100
AcDbSymbolTableRecord
100
AcDbDimStyleTableRecord
  2
STANDARD
 70
     0
  3

  4

  5

  6

  7

 40
1.0
 41
0.18
 42
0.0625
 43
0.38
 44
0.18
 45
0.0
 46
0.0
 47
0.0
 48
0.0
140
0.18
141
0.09
142
0.0
143
25.4
144
1.0
145
0.0
146
1.0
147
0.09
 71
     0
 72
     0
 73
     1
 74
     1
 75
     0
 76
     0
 77
     0
 78
     0
170
     0
171
     2
172
     0
173
     0
174
     0
175
     0
176
     0
177
     0
178
     0
270
     2
271
     4
272
     4
273
     2
274
     2
340
11
275
     0
280
     0
281
     0
282
     0
283
     1
284
     0
285
     0
286
     0
287
     3
288
     0
  0
ENDTAB
  0
TABLE
  2
BLOCK_RECORD
  5
1
330
0
100
AcDbSymbolTable
 70
     1
  0
BLOCK_RECORD
  5
1F
330
1
100
AcDbSymbolTableRecord
100
AcDbBlockTableRecord
  2
*MODEL_SPACE
  0
BLOCK_RECORD
  5
1B
330
1
100
AcDbSymbolTableRecord
100
AcDbBlockTableRecord
  2
*PAPER_SPACE
  0
ENDTAB
  0
ENDSEC
  0
SECTION
  2
BLOCKS
  0
BLOCK
  5
20
330
1F
100
AcDbEntity
  8
0
100
AcDbBlockBegin
  2
*MODEL_SPACE
 70
     0
 71
     0
 10
0.0
 20
0.0
 30
0.0
  3
*MODEL_SPACE
  1

  0
ENDBLK
  5
21
330
1F
100
AcDbEntity
  8
0
100
AcDbBlockEnd
  0
BLOCK
  5
1C
330
1B
100
AcDbEntity
 67
     1
  8
0
100
AcDbBlockBegin
  2
*PAPER_SPACE
 70
     0
 71
     0
 10
0.0
 20
0.0
 30
0.0
  3
*PAPER_SPACE
  1

  0
ENDBLK
  5
1D
330
1B
100
AcDbEntity
 67
     1
  8
0
100
AcDbBlockEnd
  0
ENDSEC
  0
SECTION
  2
ENTITIES
  0
SPLINE
  5
3C
330
1F
100
AcDbEntity
  8
MAKE2D$VISIBLE$LINES
 62
     7
100
AcDbSpline
210
0.0
220
0.0
230
1.0
 70
     8
 71
     3
 72
     8
 73
     4
 74
     0
 42
0.0000000001
 43
0.0000000001
 40
0.0
 40
0.0
 40
0.0
 40
0.0
 40
1.0
 40
1.0
 40
1.0
 40
1.0
 10
-3.420807562078826
 20
357.1957681398678
 30
0.0
 10
-4.24918077150715
 20
357.1957681398678
 30
0.0
 10
-4.920802136356605
 20
356.5243190297925
 30
0.0
 10
-4.920802136356605
 20
355.6957735655899
 30
0.0
  0
SPLINE
  5
3D
330
1F
100
AcDbEntity
  8
MAKE2D$VISIBLE$LINES
 62
     7
100
AcDbSpline
210
0.0
220
0.0
230
1.0
 70
     8
 71
     3
 72
     8
 73
     4
 74
     0
 42
0.0000000001
 43
0.0000000001
 40
0.0
 40
0.0
 40
0.0
 40
0.0
 40
1.0
 40
1.0
 40
1.0
 40
1.0
 10
-4.920802136356605
 20
350.1958508781628
 30
0.0
 10
-4.920802136356605
 20
349.3674776687345
 30
0.0
 10
-4.24918077150715
 20
348.6958563038851
 30
0.0
 10
-3.420807562078826
 20
348.6958563038851
 30
0.0
  0
SPLINE
  5
3E
330
1F
100
AcDbEntity
  8
MAKE2D$VISIBLE$LINES
 62
     7
100
AcDbSpline
210
0.0
220
0.0
230
1.0
 70
     8
 71
     3
 72
     8
 73
     4
 74
     0
 42
0.0000000001
 43
0.0000000001
 40
0.0
 40
0.0
 40
0.0
 40
0.0
 40
1.0
 40
1.0
 40
1.0
 40
1.0
 10
35.07916801423368
 20
355.6957735655899
 30
0.0
 10
35.07916801423368
 20
356.5243190297925
 30
0.0
 10
34.40754664938422
 20
357.1957681398678
 30
0.0
 10
33.5791734399559
 20
357.1957681398678
 30
0.0
  0
SPLINE
  5
3F
330
1F
100
AcDbEntity
  8
MAKE2D$VISIBLE$LINES
 62
     7
100
AcDbSpline
210
0.0
220
0.0
230
1.0
 70
     8
 71
     3
 72
     8
 73
     4
 74
     0
 42
0.0000000001
 43
0.0000000001
 40
0.0
 40
0.0
 40
0.0
 40
0.0
 40
1.0
 40
1.0
 40
1.0
 40
1.0
 10
33.5791734399559
 20
348.6958563038851
 30
0.0
 10
34.40754664938422
 20
348.6958563038851
 30
0.0
 10
35.07916801423368
 20
349.3674776687345
 30
0.0
 10
35.07916801423368
 20
350.1958508781628
 30
0.0
  0
SPLINE
  5
40
330
1F
100
AcDbEntity
  8
MAKE2D$VISIBLE$LINES
 62
     7
100
AcDbSpline
210
0.0
220
0.0
230
1.0
 70
     8
 71
     3
 72
     8
 73
     4
 74
     0
 42
0.0000000001
 43
0.0000000001
 40
0.0
 40
0.0
 40
0.0
 40
0.0
 40
1.0
 40
1.0
 40
1.0
 40
1.0
 10
191.5791761131295
 20
357.1957681398678
 30
0.0
 10
190.7508029037012
 20
357.1957681398678
 30
0.0
 10
190.0791815388517
 20
356.5243190297925
 30
0.0
 10
190.0791815388517
 20
355.6957735655899
 30
0.0
  0
SPLINE
  5
41
330
1F
100
AcDbEntity
  8
MAKE2D$VISIBLE$LINES
 62
     7
100
AcDbSpline
210
0.0
220
0.0
230
1.0
 70
     8
 71
     3
 72
     8
 73
     4
 74
     0
 42
0.0000000001
 43
0.0000000001
 40
0.0
 40
0.0
 40
0.0
 40
0.0
 40
1.0
 40
1.0
 40
1.0
 40
1.0
 10
190.0791815388517
 20
350.1958508781628
 30
0.0
 10
190.0791815388517
 20
349.3674776687345
 30
0.0
 10
190.7508029037012
 20
348.6958563038851
 30
0.0
 10
191.5791761131295
 20
348.6958563038851
 30
0.0
  0
SPLINE
  5
42
330
1F
100
AcDbEntity
  8
MAKE2D$VISIBLE$LINES
 62
     7
100
AcDbSpline
210
0.0
220
0.0
230
1.0
 70
     8
 71
     3
 72
     8
 73
     4
 74
     0
 42
0.0000000001
 43
0.0000000001
 40
0.0
 40
0.0
 40
0.0
 40
0.0
 40
1.0
 40
1.0
 40
1.0
 40
1.0
 10
230.0793239442163
 20
355.6957735655899
 30
0.0
 10
230.0793239442163
 20
356.5243190297925
 30
0.0
 10
229.4075303245926
 20
357.1957681398678
 30
0.0
 10
228.5793293699385
 20
357.1957681398678
 30
0.0
  0
SPLINE
  5
43
330
1F
100
AcDbEntity
  8
MAKE2D$VISIBLE$LINES
 62
     7
100
AcDbSpline
210
0.0
220
0.0
230
1.0
 70
     8
 71
     3
 72
     8
 73
     4
 74
     0
 42
0.0000000001
 43
0.0000000001
 40
0.0
 40
0.0
 40
0.0
 40
0.0
 40
1.0
 40
1.0
 40
1.0
 40
1.0
 10
228.5793293699385
 20
348.6958563038851
 30
0.0
 10
229.4075303245926
 20
348.6958563038851
 30
0.0
 10
230.0793239442163
 20
349.3674776687345
 30
0.0
 10
230.0793239442163
 20
350.1958508781628
 30
0.0
  0
SPLINE
  5
44
330
1F
100
AcDbEntity
  8
MAKE2D$VISIBLE$LINES
 62
     7
100
AcDbSpline
210
0.0
220
0.0
230
1.0
 70
     8
 71
     3
 72
     8
 73
     4
 74
     0
 42
0.0000000001
 43
0.0000000001
 40
0.0
 40
0.0
 40
0.0
 40
0.0
 40
1.0
 40
1.0
 40
1.0
 40
1.0
 10
425.0793076194246
 20
355.6957735655899
 30
0.0
 10
425.0793076194246
 20
356.5243190297925
 30
0.0
 10
424.4075139998009
 20
357.1957681398678
 30
0.0
 10
423.5793130451469
 20
357.1957681398678
 30
0.0
  0
SPLINE
  5
45
330
1F
100
AcDbEntity
  8
MAKE2D$VISIBLE$LINES
 62
     7
100
AcDbSpline
210
0.0
220
0.0
230
1.0
 70
     8
 71
     3
 72
     8
 73
     4
 74
     0
 42
0.0000000001
 43
0.0000000001
 40
0.0
 40
0.0
 40
0.0
 40
0.0
 40
1.0
 40
1.0
 40
1.0
 40
1.0
 10
423.5793130451469
 20
348.6958563038851
 30
0.0
 10
424.4075139998009
 20
348.6958563038851
 30
0.0
 10
425.0793076194246
 20
349.3674776687345
 30
0.0
 10
425.0793076194246
 20
350.1958508781628
 30
0.0
  0
SPLINE
  5
46
330
1F
100
AcDbEntity
  8
MAKE2D$VISIBLE$LINES
 62
     7
100
AcDbSpline
210
0.0
220
0.0
230
1.0
 70
     8
 71
     3
 72
     8
 73
     4
 74
     0
 42
0.0000000001
 43
0.0000000001
 40
0.0
 40
0.0
 40
0.0
 40
0.0
 40
1.0
 40
1.0
 40
1.0
 40
1.0
 10
385.0789929592858
 20
350.1958508781628
 30
0.0
 10
385.0789929592858
 20
349.3674776687345
 30
0.0
 10
385.7507865789095
 20
348.6958563038851
 30
0.0
 10
386.5789875335636
 20
348.6958563038851
 30
0.0
  0
SPLINE
  5
47
330
1F
100
AcDbEntity
  8
MAKE2D$VISIBLE$LINES
 62
     7
100
AcDbSpline
210
0.0
220
0.0
230
1.0
 70
     8
 71
     3
 72
     8
 73
     4
 74
     0
 42
0.0000000001
 43
0.0000000001
 40
0.0
 40
0.0
 40
0.0
 40
0.0
 40
1.0
 40
1.0
 40
1.0
 40
1.0
 10
386.5789875335636
 20
357.1957681398678
 30
0.0
 10
385.7507865789095
 20
357.1957681398678
 30
0.0
 10
385.0789929592858
 20
356.5243190297925
 30
0.0
 10
385.0789929592858
 20
355.6957735655899
 30
0.0
  0
SPLINE
  5
48
330
1F
100
AcDbEntity
  8
MAKE2D$VISIBLE$LINES
 62
     7
100
AcDbSpline
210
0.0
220
0.0
230
1.0
 70
     8
 71
     3
 72
     8
 73
     4
 74
     0
 42
0.0000000001
 43
0.0000000001
 40
0.0
 40
0.0
 40
0.0
 40
0.0
 40
1.0
 40
1.0
 40
1.0
 40
1.0
 10
433.5790472006331
 20
167.1958237971768
 30
0.0
 10
433.5790472006331
 20
168.0241970066051
 30
0.0
 10
432.9075980905578
 20
168.6958183714545
 30
0.0
 10
432.0790526263552
 20
168.6958183714545
 30
0.0
  0
SPLINE
  5
49
330
1F
100
AcDbEntity
  8
MAKE2D$VISIBLE$LINES
 62
     7
100
AcDbSpline
210
0.0
220
0.0
230
1.0
 70
     8
 71
     3
 72
     8
 73
     4
 74
     0
 42
0.0000000001
 43
0.0000000001
 40
0.0
 40
0.0
 40
0.0
 40
0.0
 40
1.0
 40
1.0
 40
1.0
 40
1.0
 10
426.5793021937024
 20
168.6958183714545
 30
0.0
 10
425.7507567294998
 20
168.6958183714545
 30
0.0
 10
425.0793076194246
 20
168.0241970066051
 30
0.0
 10
425.0793076194246
 20
167.1958237971768
 30
0.0
  0
SPLINE
  5
4A
330
1F
100
AcDbEntity
  8
MAKE2D$VISIBLE$LINES
 62
     7
100
AcDbSpline
210
0.0
220
0.0
230
1.0
 70
     8
 71
     3
 72
     8
 73
     4
 74
     0
 42
0.0000000001
 43
0.0000000001
 40
0.0
 40
0.0
 40
0.0
 40
0.0
 40
1.0
 40
1.0
 40
1.0
 40
1.0
 10
432.0790526263552
 20
128.69567596609
 30
0.0
 10
432.9075980905578
 20
128.69567596609
 30
0.0
 10
433.5790472006331
 20
129.3674695857137
 30
0.0
 10
433.5790472006331
 20
130.1956705403678
 30
0.0
  0
SPLINE
  5
4B
330
1F
100
AcDbEntity
  8
MAKE2D$VISIBLE$LINES
 62
     7
100
AcDbSpline
210
0.0
220
0.0
230
1.0
 70
     8
 71
     3
 72
     8
 73
     4
 74
     0
 42
0.0000000001
 43
0.0000000001
 40
0.0
 40
0.0
 40
0.0
 40
0.0
 40
1.0
 40
1.0
 40
1.0
 40
1.0
 10
425.0793076194246
 20
130.1956705403678
 30
0.0
 10
425.0793076194246
 20
129.3674695857137
 30
0.0
 10
425.7507567294998
 20
128.69567596609
 30
0.0
 10
426.5793021937024
 20
128.69567596609
 30
0.0
  0
SPLINE
  5
4C
330
1F
100
AcDbEntity
  8
MAKE2D$VISIBLE$LINES
 62
     7
100
AcDbSpline
210
0.0
220
0.0
230
1.0
 70
     8
 71
     3
 72
     8
 73
     4
 74
     0
 42
0.0000000001
 43
0.0000000001
 40
0.0
 40
0.0
 40
0.0
 40
0.0
 40
1.0
 40
1.0
 40
1.0
 40
1.0
 10
423.5793130451469
 20
-59.80410154754897
 30
0.0
 10
424.4075139998009
 20
-59.80410154754897
 30
0.0
 10
425.0793076194246
 20
-59.13265243747379
 30
0.0
 10
425.0793076194246
 20
-58.3041069732712
 30
0.0
  0
SPLINE
  5
4D
330
1F
100
AcDbEntity
  8
MAKE2D$VISIBLE$LINES
 62
     7
100
AcDbSpline
210
0.0
220
0.0
230
1.0
 70
     8
 71
     3
 72
     8
 73
     4
 74
     0
 42
0.0000000001
 43
0.0000000001
 40
0.0
 40
0.0
 40
0.0
 40
0.0
 40
1.0
 40
1.0
 40
1.0
 40
1.0
 10
425.0793076194246
 20
-52.80401203106983
 30
0.0
 10
425.0793076194246
 20
-51.97581107641577
 30
0.0
 10
424.4075139998009
 20
-51.30401745679205
 30
0.0
 10
423.5793130451469
 20
-51.30401745679205
 30
0.0
  0
SPLINE
  5
4E
330
1F
100
AcDbEntity
  8
MAKE2D$VISIBLE$LINES
 62
     7
100
AcDbSpline
210
0.0
220
0.0
230
1.0
 70
     8
 71
     3
 72
     8
 73
     4
 74
     0
 42
0.0000000001
 43
0.0000000001
 40
0.0
 40
0.0
 40
0.0
 40
0.0
 40
1.0
 40
1.0
 40
1.0
 40
1.0
 10
385.0789929592858
 20
-58.3041069732712
 30
0.0
 10
385.0789929592858
 20
-59.13265243747379
 30
0.0
 10
385.7507865789095
 20
-59.80410154754897
 30
0.0
 10
386.5789875335636
 20
-59.80410154754897
 30
0.0
  0
SPLINE
  5
4F
330
1F
100
AcDbEntity
  8
MAKE2D$VISIBLE$LINES
 62
     7
100
AcDbSpline
210
0.0
220
0.0
230
1.0
 70
     8
 71
     3
 72
     8
 73
     4
 74
     0
 42
0.0000000001
 43
0.0000000001
 40
0.0
 40
0.0
 40
0.0
 40
0.0
 40
1.0
 40
1.0
 40
1.0
 40
1.0
 10
386.5789875335636
 20
-51.30401745679205
 30
0.0
 10
385.7507865789095
 20
-51.30401745679205
 30
0.0
 10
385.0789929592858
 20
-51.97581107641577
 30
0.0
 10
385.0789929592858
 20
-52.80401203106983
 30
0.0
  0
SPLINE
  5
50
330
1F
100
AcDbEntity
  8
MAKE2D$VISIBLE$LINES
 62
     7
100
AcDbSpline
210
0.0
220
0.0
230
1.0
 70
     8
 71
     3
 72
     8
 73
     4
 74
     0
 42
0.0000000001
 43
0.0000000001
 40
0.0
 40
0.0
 40
0.0
 40
0.0
 40
1.0
 40
1.0
 40
1.0
 40
1.0
 10
228.5793293699385
 20
-59.80410154754897
 30
0.0
 10
229.4075303245926
 20
-59.80410154754897
 30
0.0
 10
230.0793239442163
 20
-59.13265243747379
 30
0.0
 10
230.0793239442163
 20
-58.3041069732712
 30
0.0
  0
SPLINE
  5
51
330
1F
100
AcDbEntity
  8
MAKE2D$VISIBLE$LINES
 62
     7
100
AcDbSpline
210
0.0
220
0.0
230
1.0
 70
     8
 71
     3
 72
     8
 73
     4
 74
     0
 42
0.0000000001
 43
0.0000000001
 40
0.0
 40
0.0
 40
0.0
 40
0.0
 40
1.0
 40
1.0
 40
1.0
 40
1.0
 10
230.0793239442163
 20
-52.80401203106983
 30
0.0
 10
230.0793239442163
 20
-51.97581107641577
 30
0.0
 10
229.4075303245926
 20
-51.30401745679205
 30
0.0
 10
228.5793293699385
 20
-51.30401745679205
 30
0.0
  0
SPLINE
  5
52
330
1F
100
AcDbEntity
  8
MAKE2D$VISIBLE$LINES
 62
     7
100
AcDbSpline
210
0.0
220
0.0
230
1.0
 70
     8
 71
     3
 72
     8
 73
     4
 74
     0
 42
0.0000000001
 43
0.0000000001
 40
0.0
 40
0.0
 40
0.0
 40
0.0
 40
1.0
 40
1.0
 40
1.0
 40
1.0
 10
190.0791815388517
 20
-58.3041069732712
 30
0.0
 10
190.0791815388517
 20
-59.13265243747379
 30
0.0
 10
190.7508029037012
 20
-59.80410154754897
 30
0.0
 10
191.5791761131295
 20
-59.80410154754897
 30
0.0
  0
SPLINE
  5
53
330
1F
100
AcDbEntity
  8
MAKE2D$VISIBLE$LINES
 62
     7
100
AcDbSpline
210
0.0
220
0.0
230
1.0
 70
     8
 71
     3
 72
     8
 73
     4
 74
     0
 42
0.0000000001
 43
0.0000000001
 40
0.0
 40
0.0
 40
0.0
 40
0.0
 40
1.0
 40
1.0
 40
1.0
 40
1.0
 10
191.5791761131295
 20
-51.30401745679205
 30
0.0
 10
190.7508029037012
 20
-51.30401745679205
 30
0.0
 10
190.0791815388517
 20
-51.97581107641577
 30
0.0
 10
190.0791815388517
 20
-52.80401203106983
 30
0.0
  0
SPLINE
  5
54
330
1F
100
AcDbEntity
  8
MAKE2D$VISIBLE$LINES
 62
     7
100
AcDbSpline
210
0.0
220
0.0
230
1.0
 70
     8
 71
     3
 72
     8
 73
     4
 74
     0
 42
0.0000000001
 43
0.0000000001
 40
0.0
 40
0.0
 40
0.0
 40
0.0
 40
1.0
 40
1.0
 40
1.0
 40
1.0
 10
33.5791734399559
 20
-59.80410154754897
 30
0.0
 10
34.40754664938422
 20
-59.80410154754897
 30
0.0
 10
35.07916801423368
 20
-59.13265243747379
 30
0.0
 10
35.07916801423368
 20
-58.3041069732712
 30
0.0
  0
SPLINE
  5
55
330
1F
100
AcDbEntity
  8
MAKE2D$VISIBLE$LINES
 62
     7
100
AcDbSpline
210
0.0
220
0.0
230
1.0
 70
     8
 71
     3
 72
     8
 73
     4
 74
     0
 42
0.0000000001
 43
0.0000000001
 40
0.0
 40
0.0
 40
0.0
 40
0.0
 40
1.0
 40
1.0
 40
1.0
 40
1.0
 10
35.07916801423368
 20
-52.80401203106983
 30
0.0
 10
35.07916801423368
 20
-51.97581107641577
 30
0.0
 10
34.40754664938422
 20
-51.30401745679205
 30
0.0
 10
33.5791734399559
 20
-51.30401745679205
 30
0.0
  0
SPLINE
  5
56
330
1F
100
AcDbEntity
  8
MAKE2D$VISIBLE$LINES
 62
     7
100
AcDbSpline
210
0.0
220
0.0
230
1.0
 70
     8
 71
     3
 72
     8
 73
     4
 74
     0
 42
0.0000000001
 43
0.0000000001
 40
0.0
 40
0.0
 40
0.0
 40
0.0
 40
1.0
 40
1.0
 40
1.0
 40
1.0
 10
-4.920802136356605
 20
-58.3041069732712
 30
0.0
 10
-4.920802136356605
 20
-59.13265243747379
 30
0.0
 10
-4.24918077150715
 20
-59.80410154754897
 30
0.0
 10
-3.420807562078826
 20
-59.80410154754897
 30
0.0
  0
SPLINE
  5
57
330
1F
100
AcDbEntity
  8
MAKE2D$VISIBLE$LINES
 62
     7
100
AcDbSpline
210
0.0
220
0.0
230
1.0
 70
     8
 71
     3
 72
     8
 73
     4
 74
     0
 42
0.0000000001
 43
0.0000000001
 40
0.0
 40
0.0
 40
0.0
 40
0.0
 40
1.0
 40
1.0
 40
1.0
 40
1.0
 10
-3.420807562078826
 20
-51.30401745679205
 30
0.0
 10
-4.24918077150715
 20
-51.30401745679205
 30
0.0
 10
-4.920802136356605
 20
-51.97581107641577
 30
0.0
 10
-4.920802136356605
 20
-52.80401203106983
 30
0.0
  0
SPLINE
  5
58
330
1F
100
AcDbEntity
  8
MAKE2D$VISIBLE$LINES
 62
     7
100
AcDbSpline
210
0.0
220
0.0
230
1.0
 70
     8
 71
     3
 72
     8
 73
     4
 74
     0
 42
0.0000000001
 43
0.0000000001
 40
0.0
 40
0.0
 40
0.0
 40
0.0
 40
1.0
 40
1.0
 40
1.0
 40
1.0
 10
-6.420796710634384
 20
128.69567596609
 30
0.0
 10
-5.592423501206061
 20
128.69567596609
 30
0.0
 10
-4.920802136356605
 20
129.3674695857137
 30
0.0
 10
-4.920802136356605
 20
130.1956705403678
 30
0.0
  0
SPLINE
  5
59
330
1F
100
AcDbEntity
  8
MAKE2D$VISIBLE$LINES
 62
     7
100
AcDbSpline
210
0.0
220
0.0
230
1.0
 70
     8
 71
     3
 72
     8
 73
     4
 74
     0
 42
0.0000000001
 43
0.0000000001
 40
0.0
 40
0.0
 40
0.0
 40
0.0
 40
1.0
 40
1.0
 40
1.0
 40
1.0
 10
-13.42088622711353
 20
130.1956705403678
 30
0.0
 10
-13.42088622711353
 20
129.3674695857137
 30
0.0
 10
-12.74926486226407
 20
128.69567596609
 30
0.0
 10
-11.92089165283575
 20
128.69567596609
 30
0.0
  0
SPLINE
  5
5A
330
1F
100
AcDbEntity
  8
MAKE2D$VISIBLE$LINES
 62
     7
100
AcDbSpline
210
0.0
220
0.0
230
1.0
 70
     8
 71
     3
 72
     8
 73
     4
 74
     0
 42
0.0000000001
 43
0.0000000001
 40
0.0
 40
0.0
 40
0.0
 40
0.0
 40
1.0
 40
1.0
 40
1.0
 40
1.0
 10
-4.920802136356605
 20
167.1958237971768
 30
0.0
 10
-4.920802136356605
 20
168.0241970066051
 30
0.0
 10
-5.592423501206061
 20
168.6958183714545
 30
0.0
 10
-6.420796710634384
 20
168.6958183714545
 30
0.0
  0
SPLINE
  5
5B
330
1F
100
AcDbEntity
  8
MAKE2D$VISIBLE$LINES
 62
     7
100
AcDbSpline
210
0.0
220
0.0
230
1.0
 70
     8
 71
     3
 72
     8
 73
     4
 74
     0
 42
0.0000000001
 43
0.0000000001
 40
0.0
 40
0.0
 40
0.0
 40
0.0
 40
1.0
 40
1.0
 40
1.0
 40
1.0
 10
-11.92089165283575
 20
168.6958183714545
 30
0.0
 10
-12.74926486226407
 20
168.6958183714545
 30
0.0
 10
-13.42088622711353
 20
168.0241970066051
 30
0.0
 10
-13.42088622711353
 20
167.1958237971768
 30
0.0
  0
SPLINE
  5
5C
330
1F
100
AcDbEntity
  8
MAKE2D$VISIBLE$LINES
 62
     7
100
AcDbSpline
210
0.0
220
0.0
230
1.0
 70
     8
 71
     3
 72
    11
 73
     7
 74
     0
 42
0.0000000001
 43
0.0000000001
 40
0.0
 40
0.0
 40
0.0
 40
0.0
 40
1.0
 40
1.0
 40
1.0
 40
2.0
 40
2.0
 40
2.0
 40
2.0
 10
6.079215493271863
 20
-42.30405001112538
 30
0.0
 10
6.079215493271863
 20
-41.19955239855428
 30
0.0
 10
5.183662921881168
 20
-40.30417208193785
 30
0.0
 10
4.07916530931007
 20
-40.30417208193785
 30
0.0
 10
2.974667696738972
 20
-40.30417208193785
 30
0.0
 10
2.079115125348277
 20
-41.19955239855428
 30
0.0
 10
2.079115125348277
 20
-42.30405001112538
 30
0.0
  0
SPLINE
  5
5D
330
1F
100
AcDbEntity
  8
MAKE2D$VISIBLE$LINES
 62
     7
100
AcDbSpline
210
0.0
220
0.0
230
1.0
 70
     8
 71
     3
 72
    11
 73
     7
 74
     0
 42
0.0000000001
 43
0.0000000001
 40
0.0
 40
0.0
 40
0.0
 40
0.0
 40
1.0
 40
1.0
 40
1.0
 40
2.0
 40
2.0
 40
2.0
 40
2.0
 10
418.0792181029455
 20
-42.30405001112538
 30
0.0
 10
418.0792181029455
 20
-41.19955239855428
 30
0.0
 10
417.183837786329
 20
-40.30417208193785
 30
0.0
 10
416.0793401737579
 20
-40.30417208193785
 30
0.0
 10
414.9744980516384
 20
-40.30417208193785
 30
0.0
 10
414.0791177350219
 20
-41.19955239855428
 30
0.0
 10
414.0791177350219
 20
-42.30405001112538
 30
0.0
  0
SPLINE
  5
5E
330
1F
100
AcDbEntity
  8
MAKE2D$VISIBLE$LINES
 62
     7
100
AcDbSpline
210
0.0
220
0.0
230
1.0
 70
     8
 71
     3
 72
    11
 73
     7
 74
     0
 42
0.0000000001
 43
0.0000000001
 40
0.0
 40
0.0
 40
0.0
 40
0.0
 40
1.0
 40
1.0
 40
1.0
 40
2.0
 40
2.0
 40
2.0
 40
2.0
 10
418.0792181029455
 20
339.6958888582184
 30
0.0
 10
418.0792181029455
 20
340.8003864707895
 30
0.0
 10
417.183837786329
 20
341.6957667874059
 30
0.0
 10
416.0793401737579
 20
341.6957667874059
 30
0.0
 10
414.9744980516384
 20
341.6957667874059
 30
0.0
 10
414.0791177350219
 20
340.8003864707895
 30
0.0
 10
414.0791177350219
 20
339.6958888582184
 30
0.0
  0
SPLINE
  5
5F
330
1F
100
AcDbEntity
  8
MAKE2D$VISIBLE$LINES
 62
     7
100
AcDbSpline
210
0.0
220
0.0
230
1.0
 70
     8
 71
     3
 72
    11
 73
     7
 74
     0
 42
0.0000000001
 43
0.0000000001
 40
0.0
 40
0.0
 40
0.0
 40
0.0
 40
1.0
 40
1.0
 40
1.0
 40
2.0
 40
2.0
 40
2.0
 40
2.0
 10
6.079215493271863
 20
339.6958888582184
 30
0.0
 10
6.079215493271863
 20
340.8003864707895
 30
0.0
 10
5.183662921881168
 20
341.6957667874059
 30
0.0
 10
4.07916530931007
 20
341.6957667874059
 30
0.0
 10
2.974667696738972
 20
341.6957667874059
 30
0.0
 10
2.079115125348277
 20
340.8003864707895
 30
0.0
 10
2.079115125348277
 20
339.6958888582184
 30
0.0
  0
SPLINE
  5
60
330
1F
100
AcDbEntity
  8
MAKE2D$VISIBLE$LINES
 62
     7
100
AcDbSpline
210
0.0
220
0.0
230
1.0
 70
     8
 71
     3
 72
    14
 73
    10
 74
     0
 42
0.0000000001
 43
0.0000000001
 40
0.0
 40
0.0
 40
0.0
 40
0.0
 40
1.0
 40
1.0
 40
1.0
 40
2.0
 40
2.0
 40
2.0
 40
3.0
 40
3.0
 40
3.0
 40
3.0
 10
423.0790851806886
 20
60.69569225913163
 30
0.0
 10
423.0790851806886
 20
77.2645344858922
 30
0.0
 10
409.6476914123451
 20
90.69592825423574
 30
0.0
 10
393.079193695133
 20
90.69592825423574
 30
0.0
 10
376.5106959779209
 20
90.69592825423574
 30
0.0
 10
363.0793022095774
 20
77.2645344858922
 30
0.0
 10
363.0793022095774
 20
60.69569225913163
 30
0.0
 10
363.0793022095774
 20
44.12719454191959
 30
0.0
 10
376.5106959779209
 20
30.69580077357605
 30
0.0
 10
393.079193695133
 20
30.69580077357605
 30
0.0
  0
SPLINE
  5
61
330
1F
100
AcDbEntity
  8
MAKE2D$VISIBLE$LINES
 62
     7
100
AcDbSpline
210
0.0
220
0.0
230
1.0
 70
     8
 71
     3
 72
     8
 73
     4
 74
     0
 42
0.0000000001
 43
0.0000000001
 40
0.0
 40
0.0
 40
0.0
 40
0.0
 40
1.0
 40
1.0
 40
1.0
 40
1.0
 10
135.0790933907094
 20
328.6958712285899
 30
0.0
 10
136.7360120643403
 20
328.6958712285899
 30
0.0
 10
138.079082539265
 20
330.0389417035146
 30
0.0
 10
138.079082539265
 20
331.6958603771455
 30
0.0
  0
SPLINE
  5
62
330
1F
100
AcDbEntity
  8
MAKE2D$VISIBLE$LINES
 62
     7
100
AcDbSpline
210
0.0
220
0.0
230
1.0
 70
     8
 71
     3
 72
    11
 73
     7
 74
     0
 42
0.0000000001
 43
0.0000000001
 40
0.0
 40
0.0
 40
0.0
 40
0.0
 40
1.0
 40
1.0
 40
1.0
 40
2.0
 40
2.0
 40
2.0
 40
2.0
 10
115.0791083154143
 20
334.6958495257011
 30
0.0
 10
113.4223618965576
 20
334.6958495257011
 30
0.0
 10
112.0791191668587
 20
333.3526067960021
 30
0.0
 10
112.0791191668587
 20
331.6958603771455
 30
0.0
 10
112.0791191668587
 20
330.0389417035146
 30
0.0
 10
113.4223618965576
 20
328.6958712285899
 30
0.0
 10
115.0791083154143
 20
328.6958712285899
 30
0.0
  0
SPLINE
  5
63
330
1F
100
AcDbEntity
  8
MAKE2D$VISIBLE$LINES
 62
     7
100
AcDbSpline
210
0.0
220
0.0
230
1.0
 70
     8
 71
     3
 72
    11
 73
     7
 74
     0
 42
0.0000000001
 43
0.0000000001
 40
0.0
 40
0.0
 40
0.0
 40
0.0
 40
1.0
 40
1.0
 40
1.0
 40
2.0
 40
2.0
 40
2.0
 40
2.0
 10
115.0791083154143
 20
348.6958563038851
 30
0.0
 10
113.4223618965576
 20
348.6958563038851
 30
0.0
 10
112.0791191668587
 20
347.3526135741862
 30
0.0
 10
112.0791191668587
 20
345.6958671553295
 30
0.0
 10
112.0791191668587
 20
344.0389484816986
 30
0.0
 10
113.4223618965576
 20
342.695878006774
 30
0.0
 10
115.0791083154143
 20
342.695878006774
 30
0.0
  0
SPLINE
  5
64
330
1F
100
AcDbEntity
  8
MAKE2D$VISIBLE$LINES
 62
     7
100
AcDbSpline
210
0.0
220
0.0
230
1.0
 70
     8
 71
     3
 72
     8
 73
     4
 74
     0
 42
0.0000000001
 43
0.0000000001
 40
0.0
 40
0.0
 40
0.0
 40
0.0
 40
1.0
 40
1.0
 40
1.0
 40
1.0
 10
135.0790933907094
 20
342.695878006774
 30
0.0
 10
136.7360120643403
 20
342.695878006774
 30
0.0
 10
138.079082539265
 20
344.0389484816986
 30
0.0
 10
138.079082539265
 20
345.6958671553295
 30
0.0
  0
SPLINE
  5
65
330
1F
100
AcDbEntity
  8
MAKE2D$VISIBLE$LINES
 62
     7
100
AcDbSpline
210
0.0
220
0.0
230
1.0
 70
     8
 71
     3
 72
    11
 73
     7
 74
     0
 42
0.0000000001
 43
0.0000000001
 40
0.0
 40
0.0
 40
0.0
 40
0.0
 40
1.0
 40
1.0
 40
1.0
 40
2.0
 40
2.0
 40
2.0
 40
2.0
 10
285.0792398375844
 20
334.6958495257011
 30
0.0
 10
283.4224934187277
 20
334.6958495257011
 30
0.0
 10
282.0792506890288
 20
333.3526067960021
 30
0.0
 10
282.0792506890288
 20
331.6958603771455
 30
0.0
 10
282.0792506890288
 20
330.0389417035146
 30
0.0
 10
283.4224934187277
 20
328.6958712285899
 30
0.0
 10
285.0792398375844
 20
328.6958712285899
 30
0.0
  0
SPLINE
  5
66
330
1F
100
AcDbEntity
  8
MAKE2D$VISIBLE$LINES
 62
     7
100
AcDbSpline
210
0.0
220
0.0
230
1.0
 70
     8
 71
     3
 72
     8
 73
     4
 74
     0
 42
0.0000000001
 43
0.0000000001
 40
0.0
 40
0.0
 40
0.0
 40
0.0
 40
1.0
 40
1.0
 40
1.0
 40
1.0
 10
305.0790526581052
 20
328.6958712285899
 30
0.0
 10
306.7361435865104
 20
328.6958712285899
 30
0.0
 10
308.0790418066608
 20
330.0389417035146
 30
0.0
 10
308.0790418066608
 20
331.6958603771455
 30
0.0
  0
SPLINE
  5
67
330
1F
100
AcDbEntity
  8
MAKE2D$VISIBLE$LINES
 62
     7
100
AcDbSpline
210
0.0
220
0.0
230
1.0
 70
     8
 71
     3
 72
    11
 73
     7
 74
     0
 42
0.0000000001
 43
0.0000000001
 40
0.0
 40
0.0
 40
0.0
 40
0.0
 40
1.0
 40
1.0
 40
1.0
 40
2.0
 40
2.0
 40
2.0
 40
2.0
 10
285.0792398375844
 20
348.6958563038851
 30
0.0
 10
283.4224934187277
 20
348.6958563038851
 30
0.0
 10
282.0792506890288
 20
347.3526135741862
 30
0.0
 10
282.0792506890288
 20
345.6958671553295
 30
0.0
 10
282.0792506890288
 20
344.0389484816986
 30
0.0
 10
283.4224934187277
 20
342.695878006774
 30
0.0
 10
285.0792398375844
 20
342.695878006774
 30
0.0
  0
SPLINE
  5
68
330
1F
100
AcDbEntity
  8
MAKE2D$VISIBLE$LINES
 62
     7
100
AcDbSpline
210
0.0
220
0.0
230
1.0
 70
     8
 71
     3
 72
     8
 73
     4
 74
     0
 42
0.0000000001
 43
0.0000000001
 40
0.0
 40
0.0
 40
0.0
 40
0.0
 40
1.0
 40
1.0
 40
1.0
 40
1.0
 10
305.0790526581052
 20
342.695878006774
 30
0.0
 10
306.7361435865104
 20
342.695878006774
 30
0.0
 10
308.0790418066608
 20
344.0389484816986
 30
0.0
 10
308.0790418066608
 20
345.6958671553295
 30
0.0
  0
SPLINE
  5
69
330
1F
100
AcDbEntity
  8
MAKE2D$VISIBLE$LINES
 62
     7
100
AcDbSpline
210
0.0
220
0.0
230
1.0
 70
     8
 71
     3
 72
     8
 73
     4
 74
     0
 42
0.0000000001
 43
0.0000000001
 40
0.0
 40
0.0
 40
0.0
 40
0.0
 40
1.0
 40
1.0
 40
1.0
 40
1.0
 10
305.0790526581052
 20
-51.30401745679205
 30
0.0
 10
306.7361435865104
 20
-51.30401745679205
 30
0.0
 10
308.0790418066608
 20
-49.96111923664166
 30
0.0
 10
308.0790418066608
 20
-48.3040283082365
 30
0.0
  0
SPLINE
  5
6A
330
1F
100
AcDbEntity
  8
MAKE2D$VISIBLE$LINES
 62
     7
100
AcDbSpline
210
0.0
220
0.0
230
1.0
 70
     8
 71
     3
 72
    11
 73
     7
 74
     0
 42
0.0000000001
 43
0.0000000001
 40
0.0
 40
0.0
 40
0.0
 40
0.0
 40
1.0
 40
1.0
 40
1.0
 40
2.0
 40
2.0
 40
2.0
 40
2.0
 10
285.0792398375844
 20
-45.30403915968094
 30
0.0
 10
283.4224934187277
 20
-45.30403915968094
 30
0.0
 10
282.0792506890288
 20
-46.64728188937985
 30
0.0
 10
282.0792506890288
 20
-48.3040283082365
 30
0.0
 10
282.0792506890288
 20
-49.96111923664166
 30
0.0
 10
283.4224934187277
 20
-51.30401745679205
 30
0.0
 10
285.0792398375844
 20
-51.30401745679205
 30
0.0
  0
SPLINE
  5
6B
330
1F
100
AcDbEntity
  8
MAKE2D$VISIBLE$LINES
 62
     7
100
AcDbSpline
210
0.0
220
0.0
230
1.0
 70
     8
 71
     3
 72
    11
 73
     7
 74
     0
 42
0.0000000001
 43
0.0000000001
 40
0.0
 40
0.0
 40
0.0
 40
0.0
 40
1.0
 40
1.0
 40
1.0
 40
2.0
 40
2.0
 40
2.0
 40
2.0
 10
285.0792398375844
 20
-31.30420463627117
 30
0.0
 10
283.4224934187277
 20
-31.30420463627117
 30
0.0
 10
282.0792506890288
 20
-32.64744736597008
 30
0.0
 10
282.0792506890288
 20
-34.30419378482673
 30
0.0
 10
282.0792506890288
 20
-35.96094020368338
 30
0.0
 10
283.4224934187277
 20
-37.30418293338229
 30
0.0
 10
285.0792398375844
 20
-37.30418293338229
 30
0.0
  0
SPLINE
  5
6C
330
1F
100
AcDbEntity
  8
MAKE2D$VISIBLE$LINES
 62
     7
100
AcDbSpline
210
0.0
220
0.0
230
1.0
 70
     8
 71
     3
 72
     8
 73
     4
 74
     0
 42
0.0000000001
 43
0.0000000001
 40
0.0
 40
0.0
 40
0.0
 40
0.0
 40
1.0
 40
1.0
 40
1.0
 40
1.0
 10
305.0790526581052
 20
-37.30418293338229
 30
0.0
 10
306.7361435865104
 20
-37.30418293338229
 30
0.0
 10
308.0790418066608
 20
-35.96094020368338
 30
0.0
 10
308.0790418066608
 20
-34.30419378482673
 30
0.0
  0
SPLINE
  5
6D
330
1F
100
AcDbEntity
  8
MAKE2D$VISIBLE$LINES
 62
     7
100
AcDbSpline
210
0.0
220
0.0
230
1.0
 70
     8
 71
     3
 72
     8
 73
     4
 74
     0
 42
0.0000000001
 43
0.0000000001
 40
0.0
 40
0.0
 40
0.0
 40
0.0
 40
1.0
 40
1.0
 40
1.0
 40
1.0
 10
135.0790933907094
 20
-51.30401745679205
 30
0.0
 10
136.7360120643403
 20
-51.30401745679205
 30
0.0
 10
138.079082539265
 20
-49.96111923664166
 30
0.0
 10
138.079082539265
 20
-48.3040283082365
 30
0.0
  0
SPLINE
  5
6E
330
1F
100
AcDbEntity
  8
MAKE2D$VISIBLE$LINES
 62
     7
100
AcDbSpline
210
0.0
220
0.0
230
1.0
 70
     8
 71
     3
 72
    11
 73
     7
 74
     0
 42
0.0000000001
 43
0.0000000001
 40
0.0
 40
0.0
 40
0.0
 40
0.0
 40
1.0
 40
1.0
 40
1.0
 40
2.0
 40
2.0
 40
2.0
 40
2.0
 10
115.0791083154143
 20
-45.30403915968094
 30
0.0
 10
113.4223618965576
 20
-45.30403915968094
 30
0.0
 10
112.0791191668587
 20
-46.64728188937985
 30
0.0
 10
112.0791191668587
 20
-48.3040283082365
 30
0.0
 10
112.0791191668587
 20
-49.96111923664166
 30
0.0
 10
113.4223618965576
 20
-51.30401745679205
 30
0.0
 10
115.0791083154143
 20
-51.30401745679205
 30
0.0
  0
SPLINE
  5
6F
330
1F
100
AcDbEntity
  8
MAKE2D$VISIBLE$LINES
 62
     7
100
AcDbSpline
210
0.0
220
0.0
230
1.0
 70
     8
 71
     3
 72
    14
 73
    10
 74
     0
 42
0.0000000001
 43
0.0000000001
 40
0.0
 40
0.0
 40
0.0
 40
0.0
 40
1.0
 40
1.0
 40
1.0
 40
2.0
 40
2.0
 40
2.0
 40
3.0
 40
3.0
 40
3.0
 40
3.0
 10
393.079193695133
 20
266.6958658187427
 30
0.0
 10
376.5106959779209
 20
266.6958658187427
 30
0.0
 10
363.0793022095774
 20
253.2642997956249
 30
0.0
 10
363.0793022095774
 20
236.6958020784129
 30
0.0
 10
363.0793022095774
 20
220.1273043612008
 30
0.0
 10
376.5106959779209
 20
206.695738338083
 30
0.0
 10
393.079193695133
 20
206.695738338083
 30
0.0
 10
409.6476914123451
 20
206.695738338083
 30
0.0
 10
423.0790851806886
 20
220.1273043612008
 30
0.0
 10
423.0790851806886
 20
236.6958020784129
 30
0.0
  0
SPLINE
  5
70
330
1F
100
AcDbEntity
  8
MAKE2D$VISIBLE$LINES
 62
     7
100
AcDbSpline
210
0.0
220
0.0
230
1.0
 70
     8
 71
     3
 72
    11
 73
     7
 74
     0
 42
0.0000000001
 43
0.0000000001
 40
0.0
 40
0.0
 40
0.0
 40
0.0
 40
1.0
 40
1.0
 40
1.0
 40
2.0
 40
2.0
 40
2.0
 40
2.0
 10
115.0791083154143
 20
-31.30420463627117
 30
0.0
 10
113.4223618965576
 20
-31.30420463627117
 30
0.0
 10
112.0791191668587
 20
-32.64744736597008
 30
0.0
 10
112.0791191668587
 20
-34.30419378482673
 30
0.0
 10
112.0791191668587
 20
-35.96094020368338
 30
0.0
 10
113.4223618965576
 20
-37.30418293338229
 30
0.0
 10
115.0791083154143
 20
-37.30418293338229
 30
0.0
  0
SPLINE
  5
71
330
1F
100
AcDbEntity
  8
MAKE2D$VISIBLE$LINES
 62
     7
100
AcDbSpline
210
0.0
220
0.0
230
1.0
 70
     8
 71
     3
 72
     8
 73
     4
 74
     0
 42
0.0000000001
 43
0.0000000001
 40
0.0
 40
0.0
 40
0.0
 40
0.0
 40
1.0
 40
1.0
 40
1.0
 40
1.0
 10
135.0790933907094
 20
-37.30418293338229
 30
0.0
 10
136.7360120643403
 20
-37.30418293338229
 30
0.0
 10
138.079082539265
 20
-35.96094020368338
 30
0.0
 10
138.079082539265
 20
-34.30419378482673
 30
0.0
  0
POLYLINE
  5
72
330
1F
100
AcDbEntity
  8
MAKE2D$VISIBLE$LINES
 62
     7
100
AcDb2dPolyline
 66
     1
 10
0.0
 20
0.0
 30
0.0
  0
VERTEX
  5
73
330
72
100
AcDbEntity
  8
MAKE2D$VISIBLE$LINES
 62
     7
100
AcDbVertex
100
AcDb2dVertex
 10
-21.92079806309619
 20
383.695787121958
 30
0.0
  0
VERTEX
  5
74
330
72
100
AcDbEntity
  8
MAKE2D$VISIBLE$LINES
 62
     7
100
AcDbVertex
100
AcDb2dVertex
 10
-24.92078721165175
 20
380.6957979734025
 30
0.0
  0
SEQEND
  5
75
330
72
100
AcDbEntity
  8
MAKE2D$VISIBLE$LINES
  0
POLYLINE
  5
76
330
1F
100
AcDbEntity
  8
MAKE2D$VISIBLE$LINES
 62
     7
100
AcDb2dPolyline
 66
     1
 10
0.0
 20
0.0
 30
0.0
  0
VERTEX
  5
77
330
76
100
AcDbEntity
  8
MAKE2D$VISIBLE$LINES
 62
     7
100
AcDbVertex
100
AcDb2dVertex
 10
445.0791204399455
 20
380.6957979734025
 30
0.0
  0
VERTEX
  5
78
330
76
100
AcDbEntity
  8
MAKE2D$VISIBLE$LINES
 62
     7
100
AcDbVertex
100
AcDb2dVertex
 10
442.07913129139
 20
383.695787121958
 30
0.0
  0
SEQEND
  5
79
330
76
100
AcDbEntity
  8
MAKE2D$VISIBLE$LINES
  0
POLYLINE
  5
7A
330
1F
100
AcDbEntity
  8
MAKE2D$VISIBLE$LINES
 62
     7
100
AcDb2dPolyline
 66
     1
 10
0.0
 20
0.0
 30
0.0
  0
VERTEX
  5
7B
330
7A
100
AcDbEntity
  8
MAKE2D$VISIBLE$LINES
 62
     7
100
AcDbVertex
100
AcDb2dVertex
 10
442.07913129139
 20
-86.30412052963925
 30
0.0
  0
VERTEX
  5
7C
330
7A
100
AcDbEntity
  8
MAKE2D$VISIBLE$LINES
 62
     7
100
AcDbVertex
100
AcDb2dVertex
 10
445.0791204399455
 20
-83.30413138108369
 30
0.0
  0
SEQEND
  5
7D
330
7A
100
AcDbEntity
  8
MAKE2D$VISIBLE$LINES
  0
POLYLINE
  5
7E
330
1F
100
AcDbEntity
  8
MAKE2D$VISIBLE$LINES
 62
     7
100
AcDb2dPolyline
 66
     1
 10
0.0
 20
0.0
 30
0.0
  0
VERTEX
  5
7F
330
7E
100
AcDbEntity
  8
MAKE2D$VISIBLE$LINES
 62
     7
100
AcDbVertex
100
AcDb2dVertex
 10
-24.92078721165175
 20
-83.30413138108369
 30
0.0
  0
VERTEX
  5
80
330
7E
100
AcDbEntity
  8
MAKE2D$VISIBLE$LINES
 62
     7
100
AcDbVertex
100
AcDb2dVertex
 10
-21.92079806309619
 20
-86.30412052963925
 30
0.0
  0
SEQEND
  5
81
330
7E
100
AcDbEntity
  8
MAKE2D$VISIBLE$LINES
  0
SPLINE
  5
82
330
1F
100
AcDbEntity
  8
MAKE2D$VISIBLE$LINES
 62
     7
100
AcDbSpline
210
0.0
220
0.0
230
1.0
 70
     8
 71
     3
 72
    11
 73
     7
 74
     0
 42
0.0000000001
 43
0.0000000001
 40
0.0
 40
0.0
 40
0.0
 40
0.0
 40
1.0
 40
1.0
 40
1.0
 40
2.0
 40
2.0
 40
2.0
 40
2.0
 10
83.17528480993535
 20
223.6959065195969
 30
0.0
 10
83.17528480993535
 20
225.3526529384535
 30
0.0
 10
81.8322143350107
 20
226.6958956681524
 30
0.0
 10
80.17529566137979
 20
226.6958956681524
 30
0.0
 10
78.51854924252315
 20
226.6958956681524
 30
0.0
 10
77.17530651282424
 20
225.3526529384535
 30
0.0
 10
77.17530651282424
 20
223.6959065195969
 30
0.0
  0
SPLINE
  5
83
330
1F
100
AcDbEntity
  8
MAKE2D$VISIBLE$LINES
 62
     7
100
AcDbSpline
210
0.0
220
0.0
230
1.0
 70
     8
 71
     3
 72
    11
 73
     7
 74
     0
 42
0.0000000001
 43
0.0000000001
 40
0.0
 40
0.0
 40
0.0
 40
0.0
 40
1.0
 40
1.0
 40
1.0
 40
2.0
 40
2.0
 40
2.0
 40
2.0
 10
213.0791557627024
 20
-1.304313150715589
 30
0.0
 10
213.0791557627024
 20
0.3527777776895833
 30
0.0
 10
211.7359130330035
 20
1.69567599783997
 30
0.0
 10
210.0791666141469
 20
1.69567599783997
 30
0.0
 10
208.422247940516
 20
1.69567599783997
 30
0.0
 10
207.0791774655913
 20
0.3527777776895833
 30
0.0
 10
207.0791774655913
 20
-1.304313150715589
 30
0.0
  0
SPLINE
  5
84
330
1F
100
AcDbEntity
  8
MAKE2D$VISIBLE$LINES
 62
     7
100
AcDbSpline
210
0.0
220
0.0
230
1.0
 70
     8
 71
     3
 72
    11
 73
     7
 74
     0
 42
0.0000000001
 43
0.0000000001
 40
0.0
 40
0.0
 40
0.0
 40
0.0
 40
1.0
 40
1.0
 40
1.0
 40
2.0
 40
2.0
 40
2.0
 40
2.0
 10
27.07913953316077
 20
-36.30407171401426
 30
0.0
 10
27.07913953316077
 20
-35.19957410144316
 30
0.0
 10
26.18375921654434
 20
-34.30419378482673
 30
0.0
 10
25.07908934919898
 20
-34.30419378482673
 30
0.0
 10
23.97459173662788
 20
-34.30419378482673
 30
0.0
 10
23.07921142001145
 20
-35.19957410144316
 30
0.0
 10
23.07921142001145
 20
-36.30407171401426
 30
0.0
  0
SPLINE
  5
85
330
1F
100
AcDbEntity
  8
MAKE2D$VISIBLE$LINES
 62
     7
100
AcDbSpline
210
0.0
220
0.0
230
1.0
 70
     8
 71
     3
 72
    11
 73
     7
 74
     0
 42
0.0000000001
 43
0.0000000001
 40
0.0
 40
0.0
 40
0.0
 40
0.0
 40
1.0
 40
1.0
 40
1.0
 40
2.0
 40
2.0
 40
2.0
 40
2.0
 10
397.0792940630566
 20
-36.30407171401426
 30
0.0
 10
397.0792940630566
 20
-35.19957410144316
 30
0.0
 10
396.1839137464402
 20
-34.30419378482673
 30
0.0
 10
395.0790716243205
 20
-34.30419378482673
 30
0.0
 10
393.9745740117494
 20
-34.30419378482673
 30
0.0
 10
393.079193695133
 20
-35.19957410144316
 30
0.0
 10
393.079193695133
 20
-36.30407171401426
 30
0.0
  0
SPLINE
  5
86
330
1F
100
AcDbEntity
  8
MAKE2D$VISIBLE$LINES
 62
     7
100
AcDbSpline
210
0.0
220
0.0
230
1.0
 70
     8
 71
     3
 72
    11
 73
     7
 74
     0
 42
0.0000000001
 43
0.0000000001
 40
0.0
 40
0.0
 40
0.0
 40
0.0
 40
1.0
 40
1.0
 40
1.0
 40
2.0
 40
2.0
 40
2.0
 40
2.0
 10
397.0792940630566
 20
333.695738306333
 30
0.0
 10
397.0792940630566
 20
334.8004081736784
 30
0.0
 10
396.1839137464402
 20
335.6957884902948
 30
0.0
 10
395.0790716243205
 20
335.6957884902948
 30
0.0
 10
393.9745740117494
 20
335.6957884902948
 30
0.0
 10
393.079193695133
 20
334.8004081736784
 30
0.0
 10
393.079193695133
 20
333.695738306333
 30
0.0
  0
SPLINE
  5
87
330
1F
100
AcDbEntity
  8
MAKE2D$VISIBLE$LINES
 62
     7
100
AcDbSpline
210
0.0
220
0.0
230
1.0
 70
     8
 71
     3
 72
    11
 73
     7
 74
     0
 42
0.0000000001
 43
0.0000000001
 40
0.0
 40
0.0
 40
0.0
 40
0.0
 40
1.0
 40
1.0
 40
1.0
 40
2.0
 40
2.0
 40
2.0
 40
2.0
 10
27.07913953316077
 20
333.695738306333
 30
0.0
 10
27.07913953316077
 20
334.8004081736784
 30
0.0
 10
26.18375921654434
 20
335.6957884902948
 30
0.0
 10
25.07908934919898
 20
335.6957884902948
 30
0.0
 10
23.97459173662788
 20
335.6957884902948
 30
0.0
 10
23.07921142001145
 20
334.8004081736784
 30
0.0
 10
23.07921142001145
 20
333.695738306333
 30
0.0
  0
SPLINE
  5
88
330
1F
100
AcDbEntity
  8
MAKE2D$VISIBLE$LINES
 62
     7
100
AcDbSpline
210
0.0
220
0.0
230
1.0
 70
     8
 71
     3
 72
    11
 73
     7
 74
     0
 42
0.0000000001
 43
0.0000000001
 40
0.0
 40
0.0
 40
0.0
 40
0.0
 40
1.0
 40
1.0
 40
1.0
 40
2.0
 40
2.0
 40
2.0
 40
2.0
 10
11.07908257101495
 20
15.69585503079826
 30
0.0
 10
11.07908257101495
 20
17.35260144965491
 30
0.0
 10
9.736012096090302
 20
18.69584417935382
 30
0.0
 10
8.079093422459394
 20
18.69584417935382
 30
0.0
 10
6.422347003602747
 20
18.69584417935382
 30
0.0
 10
5.079104273903836
 20
17.35260144965491
 30
0.0
 10
5.079104273903836
 20
15.69585503079826
 30
0.0
  0
SPLINE
  5
89
330
1F
100
AcDbEntity
  8
MAKE2D$VISIBLE$LINES
 62
     7
100
AcDbSpline
210
0.0
220
0.0
230
1.0
 70
     8
 71
     3
 72
    11
 73
     7
 74
     0
 42
0.0000000001
 43
0.0000000001
 40
0.0
 40
0.0
 40
0.0
 40
0.0
 40
1.0
 40
1.0
 40
1.0
 40
2.0
 40
2.0
 40
2.0
 40
2.0
 10
415.0792289543899
 20
15.69585503079826
 30
0.0
 10
415.0792289543899
 20
17.35260144965491
 30
0.0
 10
413.735986224691
 20
18.69584417935382
 30
0.0
 10
412.0792398058344
 20
18.69584417935382
 30
0.0
 10
410.4224933869777
 20
18.69584417935382
 30
0.0
 10
409.0792506572788
 20
17.35260144965491
 30
0.0
 10
409.0792506572788
 20
15.69585503079826
 30
0.0
  0
SPLINE
  5
8A
330
1F
100
AcDbEntity
  8
MAKE2D$VISIBLE$LINES
 62
     7
100
AcDbSpline
210
0.0
220
0.0
230
1.0
 70
     8
 71
     3
 72
    11
 73
     7
 74
     0
 42
0.0000000001
 43
0.0000000001
 40
0.0
 40
0.0
 40
0.0
 40
0.0
 40
1.0
 40
1.0
 40
1.0
 40
2.0
 40
2.0
 40
2.0
 40
2.0
 10
415.0792289543899
 20
281.6958115615205
 30
0.0
 10
415.0792289543899
 20
283.3527302351514
 30
0.0
 10
413.735986224691
 20
284.6958007100761
 30
0.0
 10
412.0792398058344
 20
284.6958007100761
 30
0.0
 10
410.4224933869777
 20
284.6958007100761
 30
0.0
 10
409.0792506572788
 20
283.3527302351514
 30
0.0
 10
409.0792506572788
 20
281.6958115615205
 30
0.0
  0
SPLINE
  5
8B
330
1F
100
AcDbEntity
  8
MAKE2D$VISIBLE$LINES
 62
     7
100
AcDbSpline
210
0.0
220
0.0
230
1.0
 70
     8
 71
     3
 72
    11
 73
     7
 74
     0
 42
0.0000000001
 43
0.0000000001
 40
0.0
 40
0.0
 40
0.0
 40
0.0
 40
1.0
 40
1.0
 40
1.0
 40
2.0
 40
2.0
 40
2.0
 40
2.0
 10
11.07908257101495
 20
281.6958115615205
 30
0.0
 10
11.07908257101495
 20
283.3527302351514
 30
0.0
 10
9.736012096090302
 20
284.6958007100761
 30
0.0
 10
8.079093422459394
 20
284.6958007100761
 30
0.0
 10
6.422347003602747
 20
284.6958007100761
 30
0.0
 10
5.079104273903836
 20
283.3527302351514
 30
0.0
 10
5.079104273903836
 20
281.6958115615205
 30
0.0
  0
SPLINE
  5
8C
330
1F
100
AcDbEntity
  8
MAKE2D$VISIBLE$LINES
 62
     7
100
AcDbSpline
210
0.0
220
0.0
230
1.0
 70
     8
 71
     3
 72
    11
 73
     7
 74
     0
 42
0.0000000001
 43
0.0000000001
 40
0.0
 40
0.0
 40
0.0
 40
0.0
 40
1.0
 40
1.0
 40
1.0
 40
2.0
 40
2.0
 40
2.0
 40
2.0
 10
345.0790228086955
 20
148.6958332961594
 30
0.0
 10
345.0790228086955
 20
223.2542452783878
 30
0.0
 10
284.6375785963754
 20
283.6958617454823
 30
0.0
 10
210.0791666141469
 20
283.6958617454823
 30
0.0
 10
135.5207546319184
 20
283.6958617454823
 30
0.0
 10
75.07913816482397
 20
223.2542452783878
 30
0.0
 10
75.07913816482397
 20
148.6958332961594
 30
0.0
  0
POLYLINE
  5
8D
330
1F
100
AcDbEntity
  8
MAKE2D$VISIBLE$LINES
 62
     7
100
AcDb2dPolyline
 66
     1
 10
0.0
 20
0.0
 30
0.0
  0
VERTEX
  5
8E
330
8D
100
AcDbEntity
  8
MAKE2D$VISIBLE$LINES
 62
     7
100
AcDbVertex
100
AcDb2dVertex
 10
426.5793021937024
 20
168.6958183714545
 30
0.0
  0
VERTEX
  5
8F
330
8D
100
AcDbEntity
  8
MAKE2D$VISIBLE$LINES
 62
     7
100
AcDbVertex
100
AcDb2dVertex
 10
432.0790526263552
 20
168.6958183714545
 30
0.0
  0
SEQEND
  5
90
330
8D
100
AcDbEntity
  8
MAKE2D$VISIBLE$LINES
  0
POLYLINE
  5
91
330
1F
100
AcDbEntity
  8
MAKE2D$VISIBLE$LINES
 62
     7
100
AcDb2dPolyline
 66
     1
 10
0.0
 20
0.0
 30
0.0
  0
VERTEX
  5
92
330
91
100
AcDbEntity
  8
MAKE2D$VISIBLE$LINES
 62
     7
100
AcDbVertex
100
AcDb2dVertex
 10
425.0793076194246
 20
130.1956705403678
 30
0.0
  0
VERTEX
  5
93
330
91
100
AcDbEntity
  8
MAKE2D$VISIBLE$LINES
 62
     7
100
AcDbVertex
100
AcDb2dVertex
 10
425.0793076194246
 20
167.1958237971768
 30
0.0
  0
SEQEND
  5
94
330
91
100
AcDbEntity
  8
MAKE2D$VISIBLE$LINES
  0
POLYLINE
  5
95
330
1F
100
AcDbEntity
  8
MAKE2D$VISIBLE$LINES
 62
     7
100
AcDb2dPolyline
 66
     1
 10
0.0
 20
0.0
 30
0.0
  0
VERTEX
  5
96
330
95
100
AcDbEntity
  8
MAKE2D$VISIBLE$LINES
 62
     7
100
AcDbVertex
100
AcDb2dVertex
 10
432.0790526263552
 20
128.69567596609
 30
0.0
  0
VERTEX
  5
97
330
95
100
AcDbEntity
  8
MAKE2D$VISIBLE$LINES
 62
     7
100
AcDbVertex
100
AcDb2dVertex
 10
426.5793021937024
 20
128.69567596609
 30
0.0
  0
SEQEND
  5
98
330
95
100
AcDbEntity
  8
MAKE2D$VISIBLE$LINES
  0
POLYLINE
  5
99
330
1F
100
AcDbEntity
  8
MAKE2D$VISIBLE$LINES
 62
     7
100
AcDb2dPolyline
 66
     1
 10
0.0
 20
0.0
 30
0.0
  0
VERTEX
  5
9A
330
99
100
AcDbEntity
  8
MAKE2D$VISIBLE$LINES
 62
     7
100
AcDbVertex
100
AcDb2dVertex
 10
433.5790472006331
 20
167.1958237971768
 30
0.0
  0
VERTEX
  5
9B
330
99
100
AcDbEntity
  8
MAKE2D$VISIBLE$LINES
 62
     7
100
AcDbVertex
100
AcDb2dVertex
 10
433.5790472006331
 20
130.1956705403678
 30
0.0
  0
SEQEND
  5
9C
330
99
100
AcDbEntity
  8
MAKE2D$VISIBLE$LINES
  0
POLYLINE
  5
9D
330
1F
100
AcDbEntity
  8
MAKE2D$VISIBLE$LINES
 62
     7
100
AcDb2dPolyline
 66
     1
 10
0.0
 20
0.0
 30
0.0
  0
VERTEX
  5
9E
330
9D
100
AcDbEntity
  8
MAKE2D$VISIBLE$LINES
 62
     7
100
AcDbVertex
100
AcDb2dVertex
 10
386.5789875335636
 20
357.1957681398678
 30
0.0
  0
VERTEX
  5
9F
330
9D
100
AcDbEntity
  8
MAKE2D$VISIBLE$LINES
 62
     7
100
AcDbVertex
100
AcDb2dVertex
 10
423.5793130451469
 20
357.1957681398678
 30
0.0
  0
SEQEND
  5
A0
330
9D
100
AcDbEntity
  8
MAKE2D$VISIBLE$LINES
  0
POLYLINE
  5
A1
330
1F
100
AcDbEntity
  8
MAKE2D$VISIBLE$LINES
 62
     7
100
AcDb2dPolyline
 66
     1
 10
0.0
 20
0.0
 30
0.0
  0
VERTEX
  5
A2
330
A1
100
AcDbEntity
  8
MAKE2D$VISIBLE$LINES
 62
     7
100
AcDbVertex
100
AcDb2dVertex
 10
385.0789929592858
 20
350.1958508781628
 30
0.0
  0
VERTEX
  5
A3
330
A1
100
AcDbEntity
  8
MAKE2D$VISIBLE$LINES
 62
     7
100
AcDbVertex
100
AcDb2dVertex
 10
385.0789929592858
 20
355.6957735655899
 30
0.0
  0
SEQEND
  5
A4
330
A1
100
AcDbEntity
  8
MAKE2D$VISIBLE$LINES
  0
POLYLINE
  5
A5
330
1F
100
AcDbEntity
  8
MAKE2D$VISIBLE$LINES
 62
     7
100
AcDb2dPolyline
 66
     1
 10
0.0
 20
0.0
 30
0.0
  0
VERTEX
  5
A6
330
A5
100
AcDbEntity
  8
MAKE2D$VISIBLE$LINES
 62
     7
100
AcDbVertex
100
AcDb2dVertex
 10
423.5793130451469
 20
348.6958563038851
 30
0.0
  0
VERTEX
  5
A7
330
A5
100
AcDbEntity
  8
MAKE2D$VISIBLE$LINES
 62
     7
100
AcDbVertex
100
AcDb2dVertex
 10
386.5789875335636
 20
348.6958563038851
 30
0.0
  0
SEQEND
  5
A8
330
A5
100
AcDbEntity
  8
MAKE2D$VISIBLE$LINES
  0
POLYLINE
  5
A9
330
1F
100
AcDbEntity
  8
MAKE2D$VISIBLE$LINES
 62
     7
100
AcDb2dPolyline
 66
     1
 10
0.0
 20
0.0
 30
0.0
  0
VERTEX
  5
AA
330
A9
100
AcDbEntity
  8
MAKE2D$VISIBLE$LINES
 62
     7
100
AcDbVertex
100
AcDb2dVertex
 10
425.0793076194246
 20
355.6957735655899
 30
0.0
  0
VERTEX
  5
AB
330
A9
100
AcDbEntity
  8
MAKE2D$VISIBLE$LINES
 62
     7
100
AcDbVertex
100
AcDb2dVertex
 10
425.0793076194246
 20
350.1958508781628
 30
0.0
  0
SEQEND
  5
AC
330
A9
100
AcDbEntity
  8
MAKE2D$VISIBLE$LINES
  0
POLYLINE
  5
AD
330
1F
100
AcDbEntity
  8
MAKE2D$VISIBLE$LINES
 62
     7
100
AcDb2dPolyline
 66
     1
 10
0.0
 20
0.0
 30
0.0
  0
VERTEX
  5
AE
330
AD
100
AcDbEntity
  8
MAKE2D$VISIBLE$LINES
 62
     7
100
AcDbVertex
100
AcDb2dVertex
 10
191.5791761131295
 20
357.1957681398678
 30
0.0
  0
VERTEX
  5
AF
330
AD
100
AcDbEntity
  8
MAKE2D$VISIBLE$LINES
 62
     7
100
AcDbVertex
100
AcDb2dVertex
 10
228.5793293699385
 20
357.1957681398678
 30
0.0
  0
SEQEND
  5
B0
330
AD
100
AcDbEntity
  8
MAKE2D$VISIBLE$LINES
  0
POLYLINE
  5
B1
330
1F
100
AcDbEntity
  8
MAKE2D$VISIBLE$LINES
 62
     7
100
AcDb2dPolyline
 66
     1
 10
0.0
 20
0.0
 30
0.0
  0
VERTEX
  5
B2
330
B1
100
AcDbEntity
  8
MAKE2D$VISIBLE$LINES
 62
     7
100
AcDbVertex
100
AcDb2dVertex
 10
190.0791815388517
 20
350.1958508781628
 30
0.0
  0
VERTEX
  5
B3
330
B1
100
AcDbEntity
  8
MAKE2D$VISIBLE$LINES
 62
     7
100
AcDbVertex
100
AcDb2dVertex
 10
190.0791815388517
 20
355.6957735655899
 30
0.0
  0
SEQEND
  5
B4
330
B1
100
AcDbEntity
  8
MAKE2D$VISIBLE$LINES
  0
POLYLINE
  5
B5
330
1F
100
AcDbEntity
  8
MAKE2D$VISIBLE$LINES
 62
     7
100
AcDb2dPolyline
 66
     1
 10
0.0
 20
0.0
 30
0.0
  0
VERTEX
  5
B6
330
B5
100
AcDbEntity
  8
MAKE2D$VISIBLE$LINES
 62
     7
100
AcDbVertex
100
AcDb2dVertex
 10
228.5793293699385
 20
348.6958563038851
 30
0.0
  0
VERTEX
  5
B7
330
B5
100
AcDbEntity
  8
MAKE2D$VISIBLE$LINES
 62
     7
100
AcDbVertex
100
AcDb2dVertex
 10
191.5791761131295
 20
348.6958563038851
 30
0.0
  0
SEQEND
  5
B8
330
B5
100
AcDbEntity
  8
MAKE2D$VISIBLE$LINES
  0
POLYLINE
  5
B9
330
1F
100
AcDbEntity
  8
MAKE2D$VISIBLE$LINES
 62
     7
100
AcDb2dPolyline
 66
     1
 10
0.0
 20
0.0
 30
0.0
  0
VERTEX
  5
BA
330
B9
100
AcDbEntity
  8
MAKE2D$VISIBLE$LINES
 62
     7
100
AcDbVertex
100
AcDb2dVertex
 10
230.0793239442163
 20
355.6957735655899
 30
0.0
  0
VERTEX
  5
BB
330
B9
100
AcDbEntity
  8
MAKE2D$VISIBLE$LINES
 62
     7
100
AcDbVertex
100
AcDb2dVertex
 10
230.0793239442163
 20
350.1958508781628
 30
0.0
  0
SEQEND
  5
BC
330
B9
100
AcDbEntity
  8
MAKE2D$VISIBLE$LINES
  0
POLYLINE
  5
BD
330
1F
100
AcDbEntity
  8
MAKE2D$VISIBLE$LINES
 62
     7
100
AcDb2dPolyline
 66
     1
 10
0.0
 20
0.0
 30
0.0
  0
VERTEX
  5
BE
330
BD
100
AcDbEntity
  8
MAKE2D$VISIBLE$LINES
 62
     7
100
AcDbVertex
100
AcDb2dVertex
 10
-4.920802136356605
 20
350.1958508781628
 30
0.0
  0
VERTEX
  5
BF
330
BD
100
AcDbEntity
  8
MAKE2D$VISIBLE$LINES
 62
     7
100
AcDbVertex
100
AcDb2dVertex
 10
-4.920802136356605
 20
355.6957735655899
 30
0.0
  0
SEQEND
  5
C0
330
BD
100
AcDbEntity
  8
MAKE2D$VISIBLE$LINES
  0
POLYLINE
  5
C1
330
1F
100
AcDbEntity
  8
MAKE2D$VISIBLE$LINES
 62
     7
100
AcDb2dPolyline
 66
     1
 10
0.0
 20
0.0
 30
0.0
  0
VERTEX
  5
C2
330
C1
100
AcDbEntity
  8
MAKE2D$VISIBLE$LINES
 62
     7
100
AcDbVertex
100
AcDb2dVertex
 10
33.5791734399559
 20
348.6958563038851
 30
0.0
  0
VERTEX
  5
C3
330
C1
100
AcDbEntity
  8
MAKE2D$VISIBLE$LINES
 62
     7
100
AcDbVertex
100
AcDb2dVertex
 10
-3.420807562078826
 20
348.6958563038851
 30
0.0
  0
SEQEND
  5
C4
330
C1
100
AcDbEntity
  8
MAKE2D$VISIBLE$LINES
  0
POLYLINE
  5
C5
330
1F
100
AcDbEntity
  8
MAKE2D$VISIBLE$LINES
 62
     7
100
AcDb2dPolyline
 66
     1
 10
0.0
 20
0.0
 30
0.0
  0
VERTEX
  5
C6
330
C5
100
AcDbEntity
  8
MAKE2D$VISIBLE$LINES
 62
     7
100
AcDbVertex
100
AcDb2dVertex
 10
35.07916801423368
 20
355.6957735655899
 30
0.0
  0
VERTEX
  5
C7
330
C5
100
AcDbEntity
  8
MAKE2D$VISIBLE$LINES
 62
     7
100
AcDbVertex
100
AcDb2dVertex
 10
35.07916801423368
 20
350.1958508781628
 30
0.0
  0
SEQEND
  5
C8
330
C5
100
AcDbEntity
  8
MAKE2D$VISIBLE$LINES
  0
POLYLINE
  5
C9
330
1F
100
AcDbEntity
  8
MAKE2D$VISIBLE$LINES
 62
     7
100
AcDb2dPolyline
 66
     1
 10
0.0
 20
0.0
 30
0.0
  0
VERTEX
  5
CA
330
C9
100
AcDbEntity
  8
MAKE2D$VISIBLE$LINES
 62
     7
100
AcDbVertex
100
AcDb2dVertex
 10
-3.420807562078826
 20
357.1957681398678
 30
0.0
  0
VERTEX
  5
CB
330
C9
100
AcDbEntity
  8
MAKE2D$VISIBLE$LINES
 62
     7
100
AcDbVertex
100
AcDb2dVertex
 10
33.5791734399559
 20
357.1957681398678
 30
0.0
  0
SEQEND
  5
CC
330
C9
100
AcDbEntity
  8
MAKE2D$VISIBLE$LINES
  0
POLYLINE
  5
CD
330
1F
100
AcDbEntity
  8
MAKE2D$VISIBLE$LINES
 62
     7
100
AcDb2dPolyline
 66
     1
 10
0.0
 20
0.0
 30
0.0
  0
VERTEX
  5
CE
330
CD
100
AcDbEntity
  8
MAKE2D$VISIBLE$LINES
 62
     7
100
AcDbVertex
100
AcDb2dVertex
 10
-6.420796710634384
 20
128.69567596609
 30
0.0
  0
VERTEX
  5
CF
330
CD
100
AcDbEntity
  8
MAKE2D$VISIBLE$LINES
 62
     7
100
AcDbVertex
100
AcDb2dVertex
 10
-11.92089165283575
 20
128.69567596609
 30
0.0
  0
SEQEND
  5
D0
330
CD
100
AcDbEntity
  8
MAKE2D$VISIBLE$LINES
  0
POLYLINE
  5
D1
330
1F
100
AcDbEntity
  8
MAKE2D$VISIBLE$LINES
 62
     7
100
AcDb2dPolyline
 66
     1
 10
0.0
 20
0.0
 30
0.0
  0
VERTEX
  5
D2
330
D1
100
AcDbEntity
  8
MAKE2D$VISIBLE$LINES
 62
     7
100
AcDbVertex
100
AcDb2dVertex
 10
-4.920802136356605
 20
167.1958237971768
 30
0.0
  0
VERTEX
  5
D3
330
D1
100
AcDbEntity
  8
MAKE2D$VISIBLE$LINES
 62
     7
100
AcDbVertex
100
AcDb2dVertex
 10
-4.920802136356605
 20
130.1956705403678
 30
0.0
  0
SEQEND
  5
D4
330
D1
100
AcDbEntity
  8
MAKE2D$VISIBLE$LINES
  0
POLYLINE
  5
D5
330
1F
100
AcDbEntity
  8
MAKE2D$VISIBLE$LINES
 62
     7
100
AcDb2dPolyline
 66
     1
 10
0.0
 20
0.0
 30
0.0
  0
VERTEX
  5
D6
330
D5
100
AcDbEntity
  8
MAKE2D$VISIBLE$LINES
 62
     7
100
AcDbVertex
100
AcDb2dVertex
 10
-11.92089165283575
 20
168.6958183714545
 30
0.0
  0
VERTEX
  5
D7
330
D5
100
AcDbEntity
  8
MAKE2D$VISIBLE$LINES
 62
     7
100
AcDbVertex
100
AcDb2dVertex
 10
-6.420796710634384
 20
168.6958183714545
 30
0.0
  0
SEQEND
  5
D8
330
D5
100
AcDbEntity
  8
MAKE2D$VISIBLE$LINES
  0
POLYLINE
  5
D9
330
1F
100
AcDbEntity
  8
MAKE2D$VISIBLE$LINES
 62
     7
100
AcDb2dPolyline
 66
     1
 10
0.0
 20
0.0
 30
0.0
  0
VERTEX
  5
DA
330
D9
100
AcDbEntity
  8
MAKE2D$VISIBLE$LINES
 62
     7
100
AcDbVertex
100
AcDb2dVertex
 10
-13.42088622711353
 20
130.1956705403678
 30
0.0
  0
VERTEX
  5
DB
330
D9
100
AcDbEntity
  8
MAKE2D$VISIBLE$LINES
 62
     7
100
AcDbVertex
100
AcDb2dVertex
 10
-13.42088622711353
 20
167.1958237971768
 30
0.0
  0
SEQEND
  5
DC
330
D9
100
AcDbEntity
  8
MAKE2D$VISIBLE$LINES
  0
POLYLINE
  5
DD
330
1F
100
AcDbEntity
  8
MAKE2D$VISIBLE$LINES
 62
     7
100
AcDb2dPolyline
 66
     1
 10
0.0
 20
0.0
 30
0.0
  0
VERTEX
  5
DE
330
DD
100
AcDbEntity
  8
MAKE2D$VISIBLE$LINES
 62
     7
100
AcDbVertex
100
AcDb2dVertex
 10
35.07916801423368
 20
-52.80401203106983
 30
0.0
  0
VERTEX
  5
DF
330
DD
100
AcDbEntity
  8
MAKE2D$VISIBLE$LINES
 62
     7
100
AcDbVertex
100
AcDb2dVertex
 10
35.07916801423368
 20
-58.3041069732712
 30
0.0
  0
SEQEND
  5
E0
330
DD
100
AcDbEntity
  8
MAKE2D$VISIBLE$LINES
  0
POLYLINE
  5
E1
330
1F
100
AcDbEntity
  8
MAKE2D$VISIBLE$LINES
 62
     7
100
AcDb2dPolyline
 66
     1
 10
0.0
 20
0.0
 30
0.0
  0
VERTEX
  5
E2
330
E1
100
AcDbEntity
  8
MAKE2D$VISIBLE$LINES
 62
     7
100
AcDbVertex
100
AcDb2dVertex
 10
-3.420807562078826
 20
-51.30401745679205
 30
0.0
  0
VERTEX
  5
E3
330
E1
100
AcDbEntity
  8
MAKE2D$VISIBLE$LINES
 62
     7
100
AcDbVertex
100
AcDb2dVertex
 10
33.5791734399559
 20
-51.30401745679205
 30
0.0
  0
SEQEND
  5
E4
330
E1
100
AcDbEntity
  8
MAKE2D$VISIBLE$LINES
  0
POLYLINE
  5
E5
330
1F
100
AcDbEntity
  8
MAKE2D$VISIBLE$LINES
 62
     7
100
AcDb2dPolyline
 66
     1
 10
0.0
 20
0.0
 30
0.0
  0
VERTEX
  5
E6
330
E5
100
AcDbEntity
  8
MAKE2D$VISIBLE$LINES
 62
     7
100
AcDbVertex
100
AcDb2dVertex
 10
-4.920802136356605
 20
-58.3041069732712
 30
0.0
  0
VERTEX
  5
E7
330
E5
100
AcDbEntity
  8
MAKE2D$VISIBLE$LINES
 62
     7
100
AcDbVertex
100
AcDb2dVertex
 10
-4.920802136356605
 20
-52.80401203106983
 30
0.0
  0
SEQEND
  5
E8
330
E5
100
AcDbEntity
  8
MAKE2D$VISIBLE$LINES
  0
POLYLINE
  5
E9
330
1F
100
AcDbEntity
  8
MAKE2D$VISIBLE$LINES
 62
     7
100
AcDb2dPolyline
 66
     1
 10
0.0
 20
0.0
 30
0.0
  0
VERTEX
  5
EA
330
E9
100
AcDbEntity
  8
MAKE2D$VISIBLE$LINES
 62
     7
100
AcDbVertex
100
AcDb2dVertex
 10
33.5791734399559
 20
-59.80410154754897
 30
0.0
  0
VERTEX
  5
EB
330
E9
100
AcDbEntity
  8
MAKE2D$VISIBLE$LINES
 62
     7
100
AcDbVertex
100
AcDb2dVertex
 10
-3.420807562078826
 20
-59.80410154754897
 30
0.0
  0
SEQEND
  5
EC
330
E9
100
AcDbEntity
  8
MAKE2D$VISIBLE$LINES
  0
POLYLINE
  5
ED
330
1F
100
AcDbEntity
  8
MAKE2D$VISIBLE$LINES
 62
     7
100
AcDb2dPolyline
 66
     1
 10
0.0
 20
0.0
 30
0.0
  0
VERTEX
  5
EE
330
ED
100
AcDbEntity
  8
MAKE2D$VISIBLE$LINES
 62
     7
100
AcDbVertex
100
AcDb2dVertex
 10
230.0793239442163
 20
-52.80401203106983
 30
0.0
  0
VERTEX
  5
EF
330
ED
100
AcDbEntity
  8
MAKE2D$VISIBLE$LINES
 62
     7
100
AcDbVertex
100
AcDb2dVertex
 10
230.0793239442163
 20
-58.3041069732712
 30
0.0
  0
SEQEND
  5
F0
330
ED
100
AcDbEntity
  8
MAKE2D$VISIBLE$LINES
  0
POLYLINE
  5
F1
330
1F
100
AcDbEntity
  8
MAKE2D$VISIBLE$LINES
 62
     7
100
AcDb2dPolyline
 66
     1
 10
0.0
 20
0.0
 30
0.0
  0
VERTEX
  5
F2
330
F1
100
AcDbEntity
  8
MAKE2D$VISIBLE$LINES
 62
     7
100
AcDbVertex
100
AcDb2dVertex
 10
191.5791761131295
 20
-51.30401745679205
 30
0.0
  0
VERTEX
  5
F3
330
F1
100
AcDbEntity
  8
MAKE2D$VISIBLE$LINES
 62
     7
100
AcDbVertex
100
AcDb2dVertex
 10
228.5793293699385
 20
-51.30401745679205
 30
0.0
  0
SEQEND
  5
F4
330
F1
100
AcDbEntity
  8
MAKE2D$VISIBLE$LINES
  0
POLYLINE
  5
F5
330
1F
100
AcDbEntity
  8
MAKE2D$VISIBLE$LINES
 62
     7
100
AcDb2dPolyline
 66
     1
 10
0.0
 20
0.0
 30
0.0
  0
VERTEX
  5
F6
330
F5
100
AcDbEntity
  8
MAKE2D$VISIBLE$LINES
 62
     7
100
AcDbVertex
100
AcDb2dVertex
 10
190.0791815388517
 20
-58.3041069732712
 30
0.0
  0
VERTEX
  5
F7
330
F5
100
AcDbEntity
  8
MAKE2D$VISIBLE$LINES
 62
     7
100
AcDbVertex
100
AcDb2dVertex
 10
190.0791815388517
 20
-52.80401203106983
 30
0.0
  0
SEQEND
  5
F8
330
F5
100
AcDbEntity
  8
MAKE2D$VISIBLE$LINES
  0
POLYLINE
  5
F9
330
1F
100
AcDbEntity
  8
MAKE2D$VISIBLE$LINES
 62
     7
100
AcDb2dPolyline
 66
     1
 10
0.0
 20
0.0
 30
0.0
  0
VERTEX
  5
FA
330
F9
100
AcDbEntity
  8
MAKE2D$VISIBLE$LINES
 62
     7
100
AcDbVertex
100
AcDb2dVertex
 10
228.5793293699385
 20
-59.80410154754897
 30
0.0
  0
VERTEX
  5
FB
330
F9
100
AcDbEntity
  8
MAKE2D$VISIBLE$LINES
 62
     7
100
AcDbVertex
100
AcDb2dVertex
 10
191.5791761131295
 20
-59.80410154754897
 30
0.0
  0
SEQEND
  5
FC
330
F9
100
AcDbEntity
  8
MAKE2D$VISIBLE$LINES
  0
POLYLINE
  5
FD
330
1F
100
AcDbEntity
  8
MAKE2D$VISIBLE$LINES
 62
     7
100
AcDb2dPolyline
 66
     1
 10
0.0
 20
0.0
 30
0.0
  0
VERTEX
  5
FE
330
FD
100
AcDbEntity
  8
MAKE2D$VISIBLE$LINES
 62
     7
100
AcDbVertex
100
AcDb2dVertex
 10
425.0793076194246
 20
-52.80401203106983
 30
0.0
  0
VERTEX
  5
FF
330
FD
100
AcDbEntity
  8
MAKE2D$VISIBLE$LINES
 62
     7
100
AcDbVertex
100
AcDb2dVertex
 10
425.0793076194246
 20
-58.3041069732712
 30
0.0
  0
SEQEND
  5
100
330
FD
100
AcDbEntity
  8
MAKE2D$VISIBLE$LINES
  0
POLYLINE
  5
101
330
1F
100
AcDbEntity
  8
MAKE2D$VISIBLE$LINES
 62
     7
100
AcDb2dPolyline
 66
     1
 10
0.0
 20
0.0
 30
0.0
  0
VERTEX
  5
102
330
101
100
AcDbEntity
  8
MAKE2D$VISIBLE$LINES
 62
     7
100
AcDbVertex
100
AcDb2dVertex
 10
386.5789875335636
 20
-51.30401745679205
 30
0.0
  0
VERTEX
  5
103
330
101
100
AcDbEntity
  8
MAKE2D$VISIBLE$LINES
 62
     7
100
AcDbVertex
100
AcDb2dVertex
 10
423.5793130451469
 20
-51.30401745679205
 30
0.0
  0
SEQEND
  5
104
330
101
100
AcDbEntity
  8
MAKE2D$VISIBLE$LINES
  0
POLYLINE
  5
105
330
1F
100
AcDbEntity
  8
MAKE2D$VISIBLE$LINES
 62
     7
100
AcDb2dPolyline
 66
     1
 10
0.0
 20
0.0
 30
0.0
  0
VERTEX
  5
106
330
105
100
AcDbEntity
  8
MAKE2D$VISIBLE$LINES
 62
     7
100
AcDbVertex
100
AcDb2dVertex
 10
385.0789929592858
 20
-58.3041069732712
 30
0.0
  0
VERTEX
  5
107
330
105
100
AcDbEntity
  8
MAKE2D$VISIBLE$LINES
 62
     7
100
AcDbVertex
100
AcDb2dVertex
 10
385.0789929592858
 20
-52.80401203106983
 30
0.0
  0
SEQEND
  5
108
330
105
100
AcDbEntity
  8
MAKE2D$VISIBLE$LINES
  0
POLYLINE
  5
109
330
1F
100
AcDbEntity
  8
MAKE2D$VISIBLE$LINES
 62
     7
100
AcDb2dPolyline
 66
     1
 10
0.0
 20
0.0
 30
0.0
  0
VERTEX
  5
10A
330
109
100
AcDbEntity
  8
MAKE2D$VISIBLE$LINES
 62
     7
100
AcDbVertex
100
AcDb2dVertex
 10
423.5793130451469
 20
-59.80410154754897
 30
0.0
  0
VERTEX
  5
10B
330
109
100
AcDbEntity
  8
MAKE2D$VISIBLE$LINES
 62
     7
100
AcDbVertex
100
AcDb2dVertex
 10
386.5789875335636
 20
-59.80410154754897
 30
0.0
  0
SEQEND
  5
10C
330
109
100
AcDbEntity
  8
MAKE2D$VISIBLE$LINES
  0
POLYLINE
  5
10D
330
1F
100
AcDbEntity
  8
MAKE2D$VISIBLE$LINES
 62
     7
100
AcDb2dPolyline
 66
     1
 10
0.0
 20
0.0
 30
0.0
  0
VERTEX
  5
10E
330
10D
100
AcDbEntity
  8
MAKE2D$VISIBLE$LINES
 62
     7
100
AcDbVertex
100
AcDb2dVertex
 10
115.0791083154143
 20
-31.30420463627117
 30
0.0
  0
VERTEX
  5
10F
330
10D
100
AcDbEntity
  8
MAKE2D$VISIBLE$LINES
 62
     7
100
AcDbVertex
100
AcDb2dVertex
 10
135.0790933907094
 20
-31.30420463627117
 30
0.0
  0
SEQEND
  5
110
330
10D
100
AcDbEntity
  8
MAKE2D$VISIBLE$LINES
  0
POLYLINE
  5
111
330
1F
100
AcDbEntity
  8
MAKE2D$VISIBLE$LINES
 62
     7
100
AcDb2dPolyline
 66
     1
 10
0.0
 20
0.0
 30
0.0
  0
VERTEX
  5
112
330
111
100
AcDbEntity
  8
MAKE2D$VISIBLE$LINES
 62
     7
100
AcDbVertex
100
AcDb2dVertex
 10
135.0790933907094
 20
-37.30418293338229
 30
0.0
  0
VERTEX
  5
113
330
111
100
AcDbEntity
  8
MAKE2D$VISIBLE$LINES
 62
     7
100
AcDbVertex
100
AcDb2dVertex
 10
115.0791083154143
 20
-37.30418293338229
 30
0.0
  0
SEQEND
  5
114
330
111
100
AcDbEntity
  8
MAKE2D$VISIBLE$LINES
  0
POLYLINE
  5
115
330
1F
100
AcDbEntity
  8
MAKE2D$VISIBLE$LINES
 62
     7
100
AcDb2dPolyline
 66
     1
 10
0.0
 20
0.0
 30
0.0
  0
VERTEX
  5
116
330
115
100
AcDbEntity
  8
MAKE2D$VISIBLE$LINES
 62
     7
100
AcDbVertex
100
AcDb2dVertex
 10
423.0790851806886
 20
266.6958658187427
 30
0.0
  0
VERTEX
  5
117
330
115
100
AcDbEntity
  8
MAKE2D$VISIBLE$LINES
 62
     7
100
AcDbVertex
100
AcDb2dVertex
 10
423.0790851806886
 20
236.6958020784129
 30
0.0
  0
SEQEND
  5
118
330
115
100
AcDbEntity
  8
MAKE2D$VISIBLE$LINES
  0
POLYLINE
  5
119
330
1F
100
AcDbEntity
  8
MAKE2D$VISIBLE$LINES
 62
     7
100
AcDb2dPolyline
 66
     1
 10
0.0
 20
0.0
 30
0.0
  0
VERTEX
  5
11A
330
119
100
AcDbEntity
  8
MAKE2D$VISIBLE$LINES
 62
     7
100
AcDbVertex
100
AcDb2dVertex
 10
393.079193695133
 20
266.6958658187427
 30
0.0
  0
VERTEX
  5
11B
330
119
100
AcDbEntity
  8
MAKE2D$VISIBLE$LINES
 62
     7
100
AcDbVertex
100
AcDb2dVertex
 10
423.0790851806886
 20
266.6958658187427
 30
0.0
  0
SEQEND
  5
11C
330
119
100
AcDbEntity
  8
MAKE2D$VISIBLE$LINES
  0
POLYLINE
  5
11D
330
1F
100
AcDbEntity
  8
MAKE2D$VISIBLE$LINES
 62
     7
100
AcDb2dPolyline
 66
     1
 10
0.0
 20
0.0
 30
0.0
  0
VERTEX
  5
11E
330
11D
100
AcDbEntity
  8
MAKE2D$VISIBLE$LINES
 62
     7
100
AcDbVertex
100
AcDb2dVertex
 10
115.0791083154143
 20
-45.30403915968094
 30
0.0
  0
VERTEX
  5
11F
330
11D
100
AcDbEntity
  8
MAKE2D$VISIBLE$LINES
 62
     7
100
AcDbVertex
100
AcDb2dVertex
 10
135.0790933907094
 20
-45.30403915968094
 30
0.0
  0
SEQEND
  5
120
330
11D
100
AcDbEntity
  8
MAKE2D$VISIBLE$LINES
  0
POLYLINE
  5
121
330
1F
100
AcDbEntity
  8
MAKE2D$VISIBLE$LINES
 62
     7
100
AcDb2dPolyline
 66
     1
 10
0.0
 20
0.0
 30
0.0
  0
VERTEX
  5
122
330
121
100
AcDbEntity
  8
MAKE2D$VISIBLE$LINES
 62
     7
100
AcDbVertex
100
AcDb2dVertex
 10
135.0790933907094
 20
-51.30401745679205
 30
0.0
  0
VERTEX
  5
123
330
121
100
AcDbEntity
  8
MAKE2D$VISIBLE$LINES
 62
     7
100
AcDbVertex
100
AcDb2dVertex
 10
115.0791083154143
 20
-51.30401745679205
 30
0.0
  0
SEQEND
  5
124
330
121
100
AcDbEntity
  8
MAKE2D$VISIBLE$LINES
  0
POLYLINE
  5
125
330
1F
100
AcDbEntity
  8
MAKE2D$VISIBLE$LINES
 62
     7
100
AcDb2dPolyline
 66
     1
 10
0.0
 20
0.0
 30
0.0
  0
VERTEX
  5
126
330
125
100
AcDbEntity
  8
MAKE2D$VISIBLE$LINES
 62
     7
100
AcDbVertex
100
AcDb2dVertex
 10
285.0792398375844
 20
-31.30420463627117
 30
0.0
  0
VERTEX
  5
127
330
125
100
AcDbEntity
  8
MAKE2D$VISIBLE$LINES
 62
     7
100
AcDbVertex
100
AcDb2dVertex
 10
305.0790526581052
 20
-31.30420463627117
 30
0.0
  0
SEQEND
  5
128
330
125
100
AcDbEntity
  8
MAKE2D$VISIBLE$LINES
  0
POLYLINE
  5
129
330
1F
100
AcDbEntity
  8
MAKE2D$VISIBLE$LINES
 62
     7
100
AcDb2dPolyline
 66
     1
 10
0.0
 20
0.0
 30
0.0
  0
VERTEX
  5
12A
330
129
100
AcDbEntity
  8
MAKE2D$VISIBLE$LINES
 62
     7
100
AcDbVertex
100
AcDb2dVertex
 10
305.0790526581052
 20
-37.30418293338229
 30
0.0
  0
VERTEX
  5
12B
330
129
100
AcDbEntity
  8
MAKE2D$VISIBLE$LINES
 62
     7
100
AcDbVertex
100
AcDb2dVertex
 10
285.0792398375844
 20
-37.30418293338229
 30
0.0
  0
SEQEND
  5
12C
330
129
100
AcDbEntity
  8
MAKE2D$VISIBLE$LINES
  0
POLYLINE
  5
12D
330
1F
100
AcDbEntity
  8
MAKE2D$VISIBLE$LINES
 62
     7
100
AcDb2dPolyline
 66
     1
 10
0.0
 20
0.0
 30
0.0
  0
VERTEX
  5
12E
330
12D
100
AcDbEntity
  8
MAKE2D$VISIBLE$LINES
 62
     7
100
AcDbVertex
100
AcDb2dVertex
 10
285.0792398375844
 20
-45.30403915968094
 30
0.0
  0
VERTEX
  5
12F
330
12D
100
AcDbEntity
  8
MAKE2D$VISIBLE$LINES
 62
     7
100
AcDbVertex
100
AcDb2dVertex
 10
305.0790526581052
 20
-45.30403915968094
 30
0.0
  0
SEQEND
  5
130
330
12D
100
AcDbEntity
  8
MAKE2D$VISIBLE$LINES
  0
POLYLINE
  5
131
330
1F
100
AcDbEntity
  8
MAKE2D$VISIBLE$LINES
 62
     7
100
AcDb2dPolyline
 66
     1
 10
0.0
 20
0.0
 30
0.0
  0
VERTEX
  5
132
330
131
100
AcDbEntity
  8
MAKE2D$VISIBLE$LINES
 62
     7
100
AcDbVertex
100
AcDb2dVertex
 10
305.0790526581052
 20
-51.30401745679205
 30
0.0
  0
VERTEX
  5
133
330
131
100
AcDbEntity
  8
MAKE2D$VISIBLE$LINES
 62
     7
100
AcDbVertex
100
AcDb2dVertex
 10
285.0792398375844
 20
-51.30401745679205
 30
0.0
  0
SEQEND
  5
134
330
131
100
AcDbEntity
  8
MAKE2D$VISIBLE$LINES
  0
POLYLINE
  5
135
330
1F
100
AcDbEntity
  8
MAKE2D$VISIBLE$LINES
 62
     7
100
AcDb2dPolyline
 66
     1
 10
0.0
 20
0.0
 30
0.0
  0
VERTEX
  5
136
330
135
100
AcDbEntity
  8
MAKE2D$VISIBLE$LINES
 62
     7
100
AcDbVertex
100
AcDb2dVertex
 10
285.0792398375844
 20
348.6958563038851
 30
0.0
  0
VERTEX
  5
137
330
135
100
AcDbEntity
  8
MAKE2D$VISIBLE$LINES
 62
     7
100
AcDbVertex
100
AcDb2dVertex
 10
305.0790526581052
 20
348.6958563038851
 30
0.0
  0
SEQEND
  5
138
330
135
100
AcDbEntity
  8
MAKE2D$VISIBLE$LINES
  0
POLYLINE
  5
139
330
1F
100
AcDbEntity
  8
MAKE2D$VISIBLE$LINES
 62
     7
100
AcDb2dPolyline
 66
     1
 10
0.0
 20
0.0
 30
0.0
  0
VERTEX
  5
13A
330
139
100
AcDbEntity
  8
MAKE2D$VISIBLE$LINES
 62
     7
100
AcDbVertex
100
AcDb2dVertex
 10
305.0790526581052
 20
342.695878006774
 30
0.0
  0
VERTEX
  5
13B
330
139
100
AcDbEntity
  8
MAKE2D$VISIBLE$LINES
 62
     7
100
AcDbVertex
100
AcDb2dVertex
 10
285.0792398375844
 20
342.695878006774
 30
0.0
  0
SEQEND
  5
13C
330
139
100
AcDbEntity
  8
MAKE2D$VISIBLE$LINES
  0
POLYLINE
  5
13D
330
1F
100
AcDbEntity
  8
MAKE2D$VISIBLE$LINES
 62
     7
100
AcDb2dPolyline
 66
     1
 10
0.0
 20
0.0
 30
0.0
  0
VERTEX
  5
13E
330
13D
100
AcDbEntity
  8
MAKE2D$VISIBLE$LINES
 62
     7
100
AcDbVertex
100
AcDb2dVertex
 10
285.0792398375844
 20
334.6958495257011
 30
0.0
  0
VERTEX
  5
13F
330
13D
100
AcDbEntity
  8
MAKE2D$VISIBLE$LINES
 62
     7
100
AcDbVertex
100
AcDb2dVertex
 10
305.0790526581052
 20
334.6958495257011
 30
0.0
  0
SEQEND
  5
140
330
13D
100
AcDbEntity
  8
MAKE2D$VISIBLE$LINES
  0
POLYLINE
  5
141
330
1F
100
AcDbEntity
  8
MAKE2D$VISIBLE$LINES
 62
     7
100
AcDb2dPolyline
 66
     1
 10
0.0
 20
0.0
 30
0.0
  0
VERTEX
  5
142
330
141
100
AcDbEntity
  8
MAKE2D$VISIBLE$LINES
 62
     7
100
AcDbVertex
100
AcDb2dVertex
 10
305.0790526581052
 20
328.6958712285899
 30
0.0
  0
VERTEX
  5
143
330
141
100
AcDbEntity
  8
MAKE2D$VISIBLE$LINES
 62
     7
100
AcDbVertex
100
AcDb2dVertex
 10
285.0792398375844
 20
328.6958712285899
 30
0.0
  0
SEQEND
  5
144
330
141
100
AcDbEntity
  8
MAKE2D$VISIBLE$LINES
  0
POLYLINE
  5
145
330
1F
100
AcDbEntity
  8
MAKE2D$VISIBLE$LINES
 62
     7
100
AcDb2dPolyline
 66
     1
 10
0.0
 20
0.0
 30
0.0
  0
VERTEX
  5
146
330
145
100
AcDbEntity
  8
MAKE2D$VISIBLE$LINES
 62
     7
100
AcDbVertex
100
AcDb2dVertex
 10
115.0791083154143
 20
348.6958563038851
 30
0.0
  0
VERTEX
  5
147
330
145
100
AcDbEntity
  8
MAKE2D$VISIBLE$LINES
 62
     7
100
AcDbVertex
100
AcDb2dVertex
 10
135.0790933907094
 20
348.6958563038851
 30
0.0
  0
SEQEND
  5
148
330
145
100
AcDbEntity
  8
MAKE2D$VISIBLE$LINES
  0
POLYLINE
  5
149
330
1F
100
AcDbEntity
  8
MAKE2D$VISIBLE$LINES
 62
     7
100
AcDb2dPolyline
 66
     1
 10
0.0
 20
0.0
 30
0.0
  0
VERTEX
  5
14A
330
149
100
AcDbEntity
  8
MAKE2D$VISIBLE$LINES
 62
     7
100
AcDbVertex
100
AcDb2dVertex
 10
135.0790933907094
 20
342.695878006774
 30
0.0
  0
VERTEX
  5
14B
330
149
100
AcDbEntity
  8
MAKE2D$VISIBLE$LINES
 62
     7
100
AcDbVertex
100
AcDb2dVertex
 10
115.0791083154143
 20
342.695878006774
 30
0.0
  0
SEQEND
  5
14C
330
149
100
AcDbEntity
  8
MAKE2D$VISIBLE$LINES
  0
POLYLINE
  5
14D
330
1F
100
AcDbEntity
  8
MAKE2D$VISIBLE$LINES
 62
     7
100
AcDb2dPolyline
 66
     1
 10
0.0
 20
0.0
 30
0.0
  0
VERTEX
  5
14E
330
14D
100
AcDbEntity
  8
MAKE2D$VISIBLE$LINES
 62
     7
100
AcDbVertex
100
AcDb2dVertex
 10
115.0791083154143
 20
334.6958495257011
 30
0.0
  0
VERTEX
  5
14F
330
14D
100
AcDbEntity
  8
MAKE2D$VISIBLE$LINES
 62
     7
100
AcDbVertex
100
AcDb2dVertex
 10
135.0790933907094
 20
334.6958495257011
 30
0.0
  0
SEQEND
  5
150
330
14D
100
AcDbEntity
  8
MAKE2D$VISIBLE$LINES
  0
POLYLINE
  5
151
330
1F
100
AcDbEntity
  8
MAKE2D$VISIBLE$LINES
 62
     7
100
AcDb2dPolyline
 66
     1
 10
0.0
 20
0.0
 30
0.0
  0
VERTEX
  5
152
330
151
100
AcDbEntity
  8
MAKE2D$VISIBLE$LINES
 62
     7
100
AcDbVertex
100
AcDb2dVertex
 10
135.0790933907094
 20
328.6958712285899
 30
0.0
  0
VERTEX
  5
153
330
151
100
AcDbEntity
  8
MAKE2D$VISIBLE$LINES
 62
     7
100
AcDbVertex
100
AcDb2dVertex
 10
115.0791083154143
 20
328.6958712285899
 30
0.0
  0
SEQEND
  5
154
330
151
100
AcDbEntity
  8
MAKE2D$VISIBLE$LINES
  0
POLYLINE
  5
155
330
1F
100
AcDbEntity
  8
MAKE2D$VISIBLE$LINES
 62
     7
100
AcDb2dPolyline
 66
     1
 10
0.0
 20
0.0
 30
0.0
  0
VERTEX
  5
156
330
155
100
AcDbEntity
  8
MAKE2D$VISIBLE$LINES
 62
     7
100
AcDbVertex
100
AcDb2dVertex
 10
423.0790851806886
 20
60.69569225913163
 30
0.0
  0
VERTEX
  5
157
330
155
100
AcDbEntity
  8
MAKE2D$VISIBLE$LINES
 62
     7
100
AcDbVertex
100
AcDb2dVertex
 10
423.0790851806886
 20
30.69580077357605
 30
0.0
  0
SEQEND
  5
158
330
155
100
AcDbEntity
  8
MAKE2D$VISIBLE$LINES
  0
POLYLINE
  5
159
330
1F
100
AcDbEntity
  8
MAKE2D$VISIBLE$LINES
 62
     7
100
AcDb2dPolyline
 66
     1
 10
0.0
 20
0.0
 30
0.0
  0
VERTEX
  5
15A
330
159
100
AcDbEntity
  8
MAKE2D$VISIBLE$LINES
 62
     7
100
AcDbVertex
100
AcDb2dVertex
 10
423.0790851806886
 20
30.69580077357605
 30
0.0
  0
VERTEX
  5
15B
330
159
100
AcDbEntity
  8
MAKE2D$VISIBLE$LINES
 62
     7
100
AcDbVertex
100
AcDb2dVertex
 10
393.079193695133
 20
30.69580077357605
 30
0.0
  0
SEQEND
  5
15C
330
159
100
AcDbEntity
  8
MAKE2D$VISIBLE$LINES
  0
POLYLINE
  5
15D
330
1F
100
AcDbEntity
  8
MAKE2D$VISIBLE$LINES
 62
     7
100
AcDb2dPolyline
 66
     1
 10
0.0
 20
0.0
 30
0.0
  0
VERTEX
  5
15E
330
15D
100
AcDbEntity
  8
MAKE2D$VISIBLE$LINES
 62
     7
100
AcDbVertex
100
AcDb2dVertex
 10
442.07913129139
 20
-86.30412052963925
 30
0.0
  0
VERTEX
  5
15F
330
15D
100
AcDbEntity
  8
MAKE2D$VISIBLE$LINES
 62
     7
100
AcDbVertex
100
AcDb2dVertex
 10
-21.92079806309619
 20
-86.30412052963925
 30
0.0
  0
SEQEND
  5
160
330
15D
100
AcDbEntity
  8
MAKE2D$VISIBLE$LINES
  0
POLYLINE
  5
161
330
1F
100
AcDbEntity
  8
MAKE2D$VISIBLE$LINES
 62
     7
100
AcDb2dPolyline
 66
     1
 10
0.0
 20
0.0
 30
0.0
  0
VERTEX
  5
162
330
161
100
AcDbEntity
  8
MAKE2D$VISIBLE$LINES
 62
     7
100
AcDbVertex
100
AcDb2dVertex
 10
445.0791204399455
 20
380.6957979734025
 30
0.0
  0
VERTEX
  5
163
330
161
100
AcDbEntity
  8
MAKE2D$VISIBLE$LINES
 62
     7
100
AcDbVertex
100
AcDb2dVertex
 10
445.0791204399455
 20
-83.30413138108369
 30
0.0
  0
SEQEND
  5
164
330
161
100
AcDbEntity
  8
MAKE2D$VISIBLE$LINES
  0
POLYLINE
  5
165
330
1F
100
AcDbEntity
  8
MAKE2D$VISIBLE$LINES
 62
     7
100
AcDb2dPolyline
 66
     1
 10
0.0
 20
0.0
 30
0.0
  0
VERTEX
  5
166
330
165
100
AcDbEntity
  8
MAKE2D$VISIBLE$LINES
 62
     7
100
AcDbVertex
100
AcDb2dVertex
 10
-21.92079806309619
 20
383.695787121958
 30
0.0
  0
VERTEX
  5
167
330
165
100
AcDbEntity
  8
MAKE2D$VISIBLE$LINES
 62
     7
100
AcDbVertex
100
AcDb2dVertex
 10
442.07913129139
 20
383.695787121958
 30
0.0
  0
SEQEND
  5
168
330
165
100
AcDbEntity
  8
MAKE2D$VISIBLE$LINES
  0
POLYLINE
  5
169
330
1F
100
AcDbEntity
  8
MAKE2D$VISIBLE$LINES
 62
     7
100
AcDb2dPolyline
 66
     1
 10
0.0
 20
0.0
 30
0.0
  0
VERTEX
  5
16A
330
169
100
AcDbEntity
  8
MAKE2D$VISIBLE$LINES
 62
     7
100
AcDbVertex
100
AcDb2dVertex
 10
-24.92078721165175
 20
-83.30413138108369
 30
0.0
  0
VERTEX
  5
16B
330
169
100
AcDbEntity
  8
MAKE2D$VISIBLE$LINES
 62
     7
100
AcDbVertex
100
AcDb2dVertex
 10
-24.92078721165175
 20
380.6957979734025
 30
0.0
  0
SEQEND
  5
16C
330
169
100
AcDbEntity
  8
MAKE2D$VISIBLE$LINES
  0
SPLINE
  5
16D
330
1F
100
AcDbEntity
  8
MAKE2D$VISIBLE$LINES
 62
     7
100
AcDbSpline
210
0.0
220
0.0
230
1.0
 70
     8
 71
     3
 72
    11
 73
     7
 74
     0
 42
0.0000000001
 43
0.0000000001
 40
0.0
 40
0.0
 40
0.0
 40
0.0
 40
1.0
 40
1.0
 40
1.0
 40
2.0
 40
2.0
 40
2.0
 40
2.0
 10
75.07913816482397
 20
148.6958332961594
 30
0.0
 10
75.07913816482397
 20
74.13742131393093
 30
0.0
 10
135.5207546319184
 20
13.69597710161073
 30
0.0
 10
210.0791666141469
 20
13.69597710161073
 30
0.0
 10
284.6375785963754
 20
13.69597710161073
 30
0.0
 10
345.0790228086955
 20
74.13742131393093
 30
0.0
 10
345.0790228086955
 20
148.6958332961594
 30
0.0
  0
SPLINE
  5
16E
330
1F
100
AcDbEntity
  8
MAKE2D$VISIBLE$LINES
 62
     7
100
AcDbSpline
210
0.0
220
0.0
230
1.0
 70
     8
 71
     3
 72
    11
 73
     7
 74
     0
 42
0.0000000001
 43
0.0000000001
 40
0.0
 40
0.0
 40
0.0
 40
0.0
 40
1.0
 40
1.0
 40
1.0
 40
2.0
 40
2.0
 40
2.0
 40
2.0
 10
5.079104273903836
 20
281.6958115615205
 30
0.0
 10
5.079104273903836
 20
280.0390651426638
 30
0.0
 10
6.422347003602747
 20
278.695822412965
 30
0.0
 10
8.079093422459394
 20
278.695822412965
 30
0.0
 10
9.736012096090302
 20
278.695822412965
 30
0.0
 10
11.07908257101495
 20
280.0390651426638
 30
0.0
 10
11.07908257101495
 20
281.6958115615205
 30
0.0
  0
SPLINE
  5
16F
330
1F
100
AcDbEntity
  8
MAKE2D$VISIBLE$LINES
 62
     7
100
AcDbSpline
210
0.0
220
0.0
230
1.0
 70
     8
 71
     3
 72
    11
 73
     7
 74
     0
 42
0.0000000001
 43
0.0000000001
 40
0.0
 40
0.0
 40
0.0
 40
0.0
 40
1.0
 40
1.0
 40
1.0
 40
2.0
 40
2.0
 40
2.0
 40
2.0
 10
409.0792506572788
 20
281.6958115615205
 30
0.0
 10
409.0792506572788
 20
280.0390651426638
 30
0.0
 10
410.4224933869777
 20
278.695822412965
 30
0.0
 10
412.0792398058344
 20
278.695822412965
 30
0.0
 10
413.735986224691
 20
278.695822412965
 30
0.0
 10
415.0792289543899
 20
280.0390651426638
 30
0.0
 10
415.0792289543899
 20
281.6958115615205
 30
0.0
  0
SPLINE
  5
170
330
1F
100
AcDbEntity
  8
MAKE2D$VISIBLE$LINES
 62
     7
100
AcDbSpline
210
0.0
220
0.0
230
1.0
 70
     8
 71
     3
 72
    11
 73
     7
 74
     0
 42
0.0000000001
 43
0.0000000001
 40
0.0
 40
0.0
 40
0.0
 40
0.0
 40
1.0
 40
1.0
 40
1.0
 40
2.0
 40
2.0
 40
2.0
 40
2.0
 10
409.0792506572788
 20
15.69585503079826
 30
0.0
 10
409.0792506572788
 20
14.03910861194161
 30
0.0
 10
410.4224933869777
 20
12.6958658822427
 30
0.0
 10
412.0792398058344
 20
12.6958658822427
 30
0.0
 10
413.735986224691
 20
12.6958658822427
 30
0.0
 10
415.0792289543899
 20
14.03910861194161
 30
0.0
 10
415.0792289543899
 20
15.69585503079826
 30
0.0
  0
SPLINE
  5
171
330
1F
100
AcDbEntity
  8
MAKE2D$VISIBLE$LINES
 62
     7
100
AcDbSpline
210
0.0
220
0.0
230
1.0
 70
     8
 71
     3
 72
    11
 73
     7
 74
     0
 42
0.0000000001
 43
0.0000000001
 40
0.0
 40
0.0
 40
0.0
 40
0.0
 40
1.0
 40
1.0
 40
1.0
 40
2.0
 40
2.0
 40
2.0
 40
2.0
 10
5.079104273903836
 20
15.69585503079826
 30
0.0
 10
5.079104273903836
 20
14.03910861194161
 30
0.0
 10
6.422347003602747
 20
12.6958658822427
 30
0.0
 10
8.079093422459394
 20
12.6958658822427
 30
0.0
 10
9.736012096090302
 20
12.6958658822427
 30
0.0
 10
11.07908257101495
 20
14.03910861194161
 30
0.0
 10
11.07908257101495
 20
15.69585503079826
 30
0.0
  0
SPLINE
  5
172
330
1F
100
AcDbEntity
  8
MAKE2D$VISIBLE$LINES
 62
     7
100
AcDbSpline
210
0.0
220
0.0
230
1.0
 70
     8
 71
     3
 72
    11
 73
     7
 74
     0
 42
0.0000000001
 43
0.0000000001
 40
0.0
 40
0.0
 40
0.0
 40
0.0
 40
1.0
 40
1.0
 40
1.0
 40
2.0
 40
2.0
 40
2.0
 40
2.0
 10
23.07921142001145
 20
333.695738306333
 30
0.0
 10
23.07921142001145
 20
332.5912406937619
 30
0.0
 10
23.97459173662788
 20
331.6958603771455
 30
0.0
 10
25.07908934919898
 20
331.6958603771455
 30
0.0
 10
26.18375921654434
 20
331.6958603771455
 30
0.0
 10
27.07913953316077
 20
332.5912406937619
 30
0.0
 10
27.07913953316077
 20
333.695738306333
 30
0.0
  0
SPLINE
  5
173
330
1F
100
AcDbEntity
  8
MAKE2D$VISIBLE$LINES
 62
     7
100
AcDbSpline
210
0.0
220
0.0
230
1.0
 70
     8
 71
     3
 72
    11
 73
     7
 74
     0
 42
0.0000000001
 43
0.0000000001
 40
0.0
 40
0.0
 40
0.0
 40
0.0
 40
1.0
 40
1.0
 40
1.0
 40
2.0
 40
2.0
 40
2.0
 40
2.0
 10
393.079193695133
 20
333.695738306333
 30
0.0
 10
393.079193695133
 20
332.5912406937619
 30
0.0
 10
393.9745740117494
 20
331.6958603771455
 30
0.0
 10
395.0790716243205
 20
331.6958603771455
 30
0.0
 10
396.1839137464402
 20
331.6958603771455
 30
0.0
 10
397.0792940630566
 20
332.5912406937619
 30
0.0
 10
397.0792940630566
 20
333.695738306333
 30
0.0
  0
SPLINE
  5
174
330
1F
100
AcDbEntity
  8
MAKE2D$VISIBLE$LINES
 62
     7
100
AcDbSpline
210
0.0
220
0.0
230
1.0
 70
     8
 71
     3
 72
    11
 73
     7
 74
     0
 42
0.0000000001
 43
0.0000000001
 40
0.0
 40
0.0
 40
0.0
 40
0.0
 40
1.0
 40
1.0
 40
1.0
 40
2.0
 40
2.0
 40
2.0
 40
2.0
 10
393.079193695133
 20
-36.30407171401426
 30
0.0
 10
393.079193695133
 20
-37.40856932658536
 30
0.0
 10
393.9745740117494
 20
-38.30429415275032
 30
0.0
 10
395.0790716243205
 20
-38.30429415275032
 30
0.0
 10
396.1839137464402
 20
-38.30429415275032
 30
0.0
 10
397.0792940630566
 20
-37.40856932658536
 30
0.0
 10
397.0792940630566
 20
-36.30407171401426
 30
0.0
  0
SPLINE
  5
175
330
1F
100
AcDbEntity
  8
MAKE2D$VISIBLE$LINES
 62
     7
100
AcDbSpline
210
0.0
220
0.0
230
1.0
 70
     8
 71
     3
 72
    11
 73
     7
 74
     0
 42
0.0000000001
 43
0.0000000001
 40
0.0
 40
0.0
 40
0.0
 40
0.0
 40
1.0
 40
1.0
 40
1.0
 40
2.0
 40
2.0
 40
2.0
 40
2.0
 10
23.07921142001145
 20
-36.30407171401426
 30
0.0
 10
23.07921142001145
 20
-37.40856932658536
 30
0.0
 10
23.97459173662788
 20
-38.30429415275032
 30
0.0
 10
25.07908934919898
 20
-38.30429415275032
 30
0.0
 10
26.18375921654434
 20
-38.30429415275032
 30
0.0
 10
27.07913953316077
 20
-37.40856932658536
 30
0.0
 10
27.07913953316077
 20
-36.30407171401426
 30
0.0
  0
SPLINE
  5
176
330
1F
100
AcDbEntity
  8
MAKE2D$VISIBLE$LINES
 62
     7
100
AcDbSpline
210
0.0
220
0.0
230
1.0
 70
     8
 71
     3
 72
    11
 73
     7
 74
     0
 42
0.0000000001
 43
0.0000000001
 40
0.0
 40
0.0
 40
0.0
 40
0.0
 40
1.0
 40
1.0
 40
1.0
 40
2.0
 40
2.0
 40
2.0
 40
2.0
 10
207.0791774655913
 20
-1.304313150715589
 30
0.0
 10
207.0791774655913
 20
-2.961059569572235
 30
0.0
 10
208.422247940516
 20
-4.304302299271147
 30
0.0
 10
210.0791666141469
 20
-4.304302299271147
 30
0.0
 10
211.7359130330035
 20
-4.304302299271147
 30
0.0
 10
213.0791557627024
 20
-2.961059569572235
 30
0.0
 10
213.0791557627024
 20
-1.304313150715589
 30
0.0
  0
SPLINE
  5
177
330
1F
100
AcDbEntity
  8
MAKE2D$VISIBLE$LINES
 62
     7
100
AcDbSpline
210
0.0
220
0.0
230
1.0
 70
     8
 71
     3
 72
    11
 73
     7
 74
     0
 42
0.0000000001
 43
0.0000000001
 40
0.0
 40
0.0
 40
0.0
 40
0.0
 40
1.0
 40
1.0
 40
1.0
 40
2.0
 40
2.0
 40
2.0
 40
2.0
 10
77.17530651282424
 20
223.6959065195969
 30
0.0
 10
77.17530651282424
 20
222.0389878459659
 30
0.0
 10
78.51854924252315
 20
220.6959173710413
 30
0.0
 10
80.17529566137979
 20
220.6959173710413
 30
0.0
 10
81.8322143350107
 20
220.6959173710413
 30
0.0
 10
83.17528480993535
 20
222.0389878459659
 30
0.0
 10
83.17528480993535
 20
223.6959065195969
 30
0.0
  0
SPLINE
  5
178
330
1F
100
AcDbEntity
  8
MAKE2D$VISIBLE$LINES
 62
     7
100
AcDbSpline
210
0.0
220
0.0
230
1.0
 70
     8
 71
     3
 72
     8
 73
     4
 74
     0
 42
0.0000000001
 43
0.0000000001
 40
0.0
 40
0.0
 40
0.0
 40
0.0
 40
1.0
 40
1.0
 40
1.0
 40
1.0
 10
138.079082539265
 20
-34.30419378482673
 30
0.0
 10
138.079082539265
 20
-32.64744736597008
 30
0.0
 10
136.7360120643403
 20
-31.30420463627117
 30
0.0
 10
135.0790933907094
 20
-31.30420463627117
 30
0.0
  0
SPLINE
  5
179
330
1F
100
AcDbEntity
  8
MAKE2D$VISIBLE$LINES
 62
     7
100
AcDbSpline
210
0.0
220
0.0
230
1.0
 70
     8
 71
     3
 72
     8
 73
     4
 74
     0
 42
0.0000000001
 43
0.0000000001
 40
0.0
 40
0.0
 40
0.0
 40
0.0
 40
1.0
 40
1.0
 40
1.0
 40
1.0
 10
138.079082539265
 20
-48.3040283082365
 30
0.0
 10
138.079082539265
 20
-46.64728188937985
 30
0.0
 10
136.7360120643403
 20
-45.30403915968094
 30
0.0
 10
135.0790933907094
 20
-45.30403915968094
 30
0.0
  0
SPLINE
  5
17A
330
1F
100
AcDbEntity
  8
MAKE2D$VISIBLE$LINES
 62
     7
100
AcDbSpline
210
0.0
220
0.0
230
1.0
 70
     8
 71
     3
 72
     8
 73
     4
 74
     0
 42
0.0000000001
 43
0.0000000001
 40
0.0
 40
0.0
 40
0.0
 40
0.0
 40
1.0
 40
1.0
 40
1.0
 40
1.0
 10
308.0790418066608
 20
-34.30419378482673
 30
0.0
 10
308.0790418066608
 20
-32.64744736597008
 30
0.0
 10
306.7361435865104
 20
-31.30420463627117
 30
0.0
 10
305.0790526581052
 20
-31.30420463627117
 30
0.0
  0
SPLINE
  5
17B
330
1F
100
AcDbEntity
  8
MAKE2D$VISIBLE$LINES
 62
     7
100
AcDbSpline
210
0.0
220
0.0
230
1.0
 70
     8
 71
     3
 72
     8
 73
     4
 74
     0
 42
0.0000000001
 43
0.0000000001
 40
0.0
 40
0.0
 40
0.0
 40
0.0
 40
1.0
 40
1.0
 40
1.0
 40
1.0
 10
308.0790418066608
 20
-48.3040283082365
 30
0.0
 10
308.0790418066608
 20
-46.64728188937985
 30
0.0
 10
306.7361435865104
 20
-45.30403915968094
 30
0.0
 10
305.0790526581052
 20
-45.30403915968094
 30
0.0
  0
SPLINE
  5
17C
330
1F
100
AcDbEntity
  8
MAKE2D$VISIBLE$LINES
 62
     7
100
AcDbSpline
210
0.0
220
0.0
230
1.0
 70
     8
 71
     3
 72
     8
 73
     4
 74
     0
 42
0.0000000001
 43
0.0000000001
 40
0.0
 40
0.0
 40
0.0
 40
0.0
 40
1.0
 40
1.0
 40
1.0
 40
1.0
 10
308.0790418066608
 20
345.6958671553295
 30
0.0
 10
308.0790418066608
 20
347.3526135741862
 30
0.0
 10
306.7361435865104
 20
348.6958563038851
 30
0.0
 10
305.0790526581052
 20
348.6958563038851
 30
0.0
  0
SPLINE
  5
17D
330
1F
100
AcDbEntity
  8
MAKE2D$VISIBLE$LINES
 62
     7
100
AcDbSpline
210
0.0
220
0.0
230
1.0
 70
     8
 71
     3
 72
     8
 73
     4
 74
     0
 42
0.0000000001
 43
0.0000000001
 40
0.0
 40
0.0
 40
0.0
 40
0.0
 40
1.0
 40
1.0
 40
1.0
 40
1.0
 10
308.0790418066608
 20
331.6958603771455
 30
0.0
 10
308.0790418066608
 20
333.3526067960021
 30
0.0
 10
306.7361435865104
 20
334.6958495257011
 30
0.0
 10
305.0790526581052
 20
334.6958495257011
 30
0.0
  0
SPLINE
  5
17E
330
1F
100
AcDbEntity
  8
MAKE2D$VISIBLE$LINES
 62
     7
100
AcDbSpline
210
0.0
220
0.0
230
1.0
 70
     8
 71
     3
 72
     8
 73
     4
 74
     0
 42
0.0000000001
 43
0.0000000001
 40
0.0
 40
0.0
 40
0.0
 40
0.0
 40
1.0
 40
1.0
 40
1.0
 40
1.0
 10
138.079082539265
 20
345.6958671553295
 30
0.0
 10
138.079082539265
 20
347.3526135741862
 30
0.0
 10
136.7360120643403
 20
348.6958563038851
 30
0.0
 10
135.0790933907094
 20
348.6958563038851
 30
0.0
  0
SPLINE
  5
17F
330
1F
100
AcDbEntity
  8
MAKE2D$VISIBLE$LINES
 62
     7
100
AcDbSpline
210
0.0
220
0.0
230
1.0
 70
     8
 71
     3
 72
     8
 73
     4
 74
     0
 42
0.0000000001
 43
0.0000000001
 40
0.0
 40
0.0
 40
0.0
 40
0.0
 40
1.0
 40
1.0
 40
1.0
 40
1.0
 10
138.079082539265
 20
331.6958603771455
 30
0.0
 10
138.079082539265
 20
333.3526067960021
 30
0.0
 10
136.7360120643403
 20
334.6958495257011
 30
0.0
 10
135.0790933907094
 20
334.6958495257011
 30
0.0
  0
SPLINE
  5
180
330
1F
100
AcDbEntity
  8
MAKE2D$VISIBLE$LINES
 62
     7
100
AcDbSpline
210
0.0
220
0.0
230
1.0
 70
     8
 71
     3
 72
    11
 73
     7
 74
     0
 42
0.0000000001
 43
0.0000000001
 40
0.0
 40
0.0
 40
0.0
 40
0.0
 40
1.0
 40
1.0
 40
1.0
 40
2.0
 40
2.0
 40
2.0
 40
2.0
 10
2.079115125348277
 20
339.6958888582184
 30
0.0
 10
2.079115125348277
 20
338.591218990873
 30
0.0
 10
2.974667696738972
 20
337.6958386742566
 30
0.0
 10
4.07916530931007
 20
337.6958386742566
 30
0.0
 10
5.183662921881168
 20
337.6958386742566
 30
0.0
 10
6.079215493271863
 20
338.591218990873
 30
0.0
 10
6.079215493271863
 20
339.6958888582184
 30
0.0
  0
SPLINE
  5
181
330
1F
100
AcDbEntity
  8
MAKE2D$VISIBLE$LINES
 62
     7
100
AcDbSpline
210
0.0
220
0.0
230
1.0
 70
     8
 71
     3
 72
    11
 73
     7
 74
     0
 42
0.0000000001
 43
0.0000000001
 40
0.0
 40
0.0
 40
0.0
 40
0.0
 40
1.0
 40
1.0
 40
1.0
 40
2.0
 40
2.0
 40
2.0
 40
2.0
 10
414.0791177350219
 20
339.6958888582184
 30
0.0
 10
414.0791177350219
 20
338.591218990873
 30
0.0
 10
414.9744980516384
 20
337.6958386742566
 30
0.0
 10
416.0793401737579
 20
337.6958386742566
 30
0.0
 10
417.183837786329
 20
337.6958386742566
 30
0.0
 10
418.0792181029455
 20
338.591218990873
 30
0.0
 10
418.0792181029455
 20
339.6958888582184
 30
0.0
  0
SPLINE
  5
182
330
1F
100
AcDbEntity
  8
MAKE2D$VISIBLE$LINES
 62
     7
100
AcDbSpline
210
0.0
220
0.0
230
1.0
 70
     8
 71
     3
 72
    11
 73
     7
 74
     0
 42
0.0000000001
 43
0.0000000001
 40
0.0
 40
0.0
 40
0.0
 40
0.0
 40
1.0
 40
1.0
 40
1.0
 40
2.0
 40
2.0
 40
2.0
 40
2.0
 10
414.0791177350219
 20
-42.30405001112538
 30
0.0
 10
414.0791177350219
 20
-43.408892133245
 30
0.0
 10
414.9744980516384
 20
-44.30427244986144
 30
0.0
 10
416.0793401737579
 20
-44.30427244986144
 30
0.0
 10
417.183837786329
 20
-44.30427244986144
 30
0.0
 10
418.0792181029455
 20
-43.408892133245
 30
0.0
 10
418.0792181029455
 20
-42.30405001112538
 30
0.0
  0
SPLINE
  5
183
330
1F
100
AcDbEntity
  8
MAKE2D$VISIBLE$LINES
 62
     7
100
AcDbSpline
210
0.0
220
0.0
230
1.0
 70
     8
 71
     3
 72
    11
 73
     7
 74
     0
 42
0.0000000001
 43
0.0000000001
 40
0.0
 40
0.0
 40
0.0
 40
0.0
 40
1.0
 40
1.0
 40
1.0
 40
2.0
 40
2.0
 40
2.0
 40
2.0
 10
2.079115125348277
 20
-42.30405001112538
 30
0.0
 10
2.079115125348277
 20
-43.408892133245
 30
0.0
 10
2.974667696738972
 20
-44.30427244986144
 30
0.0
 10
4.07916530931007
 20
-44.30427244986144
 30
0.0
 10
5.183662921881168
 20
-44.30427244986144
 30
0.0
 10
6.079215493271863
 20
-43.408892133245
 30
0.0
 10
6.079215493271863
 20
-42.30405001112538
 30
0.0
  0
ENDSEC
  0
SECTION
  2
OBJECTS
  0
DICTIONARY
  5
C
330
0
100
AcDbDictionary
  3
ACAD_GROUP
350
D
  3
ACAD_LAYOUT
350
1A
  3
ACAD_MLINESTYLE
350
17
  3
ACAD_PLOTSETTINGS
350
19
  3
ACAD_TABLESTYLE
350
1A4
  3
ACAD_VISUALSTYLE
350
2A
  3
ACDBHEADERROUNDTRIPXREC
350
184
  0
DICTIONARY
  5
D
102
{ACAD_REACTORS
330
C
102
}
330
C
100
AcDbDictionary
  0
DICTIONARY
  5
1A
102
{ACAD_REACTORS
330
C
102
}
330
C
100
AcDbDictionary
  0
DICTIONARY
  5
17
102
{ACAD_REACTORS
330
C
102
}
330
C
100
AcDbDictionary
  3
STANDARD
350
18
  0
DICTIONARY
  5
19
102
{ACAD_REACTORS
330
C
102
}
330
C
100
AcDbDictionary
  0
DICTIONARY
  5
1A4
102
{ACAD_REACTORS
330
C
102
}
330
C
100
AcDbDictionary
  0
DICTIONARY
  5
2A
102
{ACAD_REACTORS
330
C
102
}
330
C
100
AcDbDictionary
  3
2DWIREFRAME
350
2F
  3
3DWIREFRAME
350
30
  3
3D_HIDDEN
350
31
  3
BASIC
350
32
  3
BRIGHTEN
350
36
  3
COLORCHANGE
350
3A
  3
CONCEPTUAL
350
34
  3
DIM
350
35
  3
FACEPATTERN
350
39
  3
FLAT
350
2B
  3
FLATWITHEDGES
350
2C
  3
GOURAUD
350
2D
  3
GOURAUDWITHEDGES
350
2E
  3
LINEPATTERN
350
38
  3
REALISTIC
350
33
  3
THICKEN
350
37
  0
DICTIONARY
  5
184
102
{ACAD_REACTORS
330
C
102
}
330
C
100
AcDbDictionary
  3
CEPSNTYPE
350
18D
  3
DIMSTYLEDATA
350
1A3
  3
FINGERPRINTGUID
350
18E
  3
HYPERLINKBASE
350
187
  3
INSUNITS
350
18C
  3
LAYOUTDICT
350
189
  3
LWETCUNION
350
18B
  3
PLOTSETDICT
350
18A
  3
PSVPSCALE
350
190
  3
PUCSBASE
350
193
  3
PUCSORGBACK
350
199
  3
PUCSORGBOTTOM
350
195
  3
PUCSORGFRONT
350
198
  3
PUCSORGLEFT
350
196
  3
PUCSORGRIGHT
350
197
  3
PUCSORGTOP
350
194
  3
PUCSORTHOREF
350
191
  3
PUCSORTHOVIEW
350
192
  3
STYLESHEET
350
188
  3
TSTACKALIGN
350
185
  3
TSTACKSIZE
350
186
  3
UCSBASE
350
19C
  3
UCSORGBACK
350
1A2
  3
UCSORGBOTTOM
350
19E
  3
UCSORGFRONT
350
1A1
  3
UCSORGLEFT
350
19F
  3
UCSORGRIGHT
350
1A0
  3
UCSORGTOP
350
19D
  3
UCSORTHOREF
350
19A
  3
UCSORTHOVIEW
350
19B
  3
VERSIONGUID
350
18F
  0
MLINESTYLE
  5
18
102
{ACAD_REACTORS
330
17
102
}
330
17
100
AcDbMlineStyle
  2
Standard
 70
     0
  3

 62
   256
 51
90.0
 52
90.0
 71
     2
 49
0.5
 62
   256
  6
BYLAYER
 49
-0.5
 62
   256
  6
BYLAYER
  0
VISUALSTYLE
  5
2F
102
{ACAD_REACTORS
330
2A
102
}
330
2A
100
AcDbVisualStyle
  2
2dWireframe
 70
     4
 71
     0
 72
     2
 73
     0
 90
        0
 40
-0.6
 41
-30.0
 62
     5
 63
     7
 74
     1
 91
        4
 64
     7
 65
   257
 75
     1
175
     1
 42
1.0
 92
        0
 66
   257
 43
1.0
 76
     1
 77
     6
 78
     2
 67
     7
 79
     5
170
     0
171
     0
290
     0
174
     0
 93
        1
 44
0.0
173
     0
291
     0
 45
0.0
1001
ACAD
1000
AcDbSavedByObjectVersion
1070
     0
  0
VISUALSTYLE
  5
30
102
{ACAD_REACTORS
330
2A
102
}
330
2A
100
AcDbVisualStyle
  2
3dWireframe
 70
     5
 71
     0
 72
     2
 73
     0
 90
        0
 40
-0.6
 41
-30.0
 62
     5
 63
     7
 74
     1
 91
        4
 64
     7
 65
   257
 75
     1
175
     1
 42
1.0
 92
        0
 66
   257
 43
1.0
 76
     1
 77
     6
 78
     2
 67
     7
 79
     5
170
     0
171
     0
290
     0
174
     0
 93
        1
 44
0.0
173
     0
291
     0
 45
0.0
1001
ACAD
1000
AcDbSavedByObjectVersion
1070
     0
  0
VISUALSTYLE
  5
31
102
{ACAD_REACTORS
330
2A
102
}
330
2A
100
AcDbVisualStyle
  2
3D Hidden
 70
     6
 71
     1
 72
     2
 73
     2
 90
        0
 40
-0.6
 41
-30.0
 62
     5
 63
     7
 74
     2
 91
        2
 64
     7
 65
   257
 75
     2
175
     1
 42
40.0
 92
        0
 66
   257
 43
1.0
 76
     1
 77
     6
 78
     2
 67
     7
 79
     3
170
     0
171
     0
290
     0
174
     0
 93
        1
 44
0.0
173
     0
291
     0
 45
0.0
1001
ACAD
1000
AcDbSavedByObjectVersion
1070
     0
  0
VISUALSTYLE
  5
32
102
{ACAD_REACTORS
330
2A
102
}
330
2A
100
AcDbVisualStyle
  2
Basic
 70
     7
 71
     1
 72
     0
 73
     1
 90
        0
 40
-0.6
 41
-30.0
 62
     5
 63
     7
 74
     0
 91
        4
 64
     7
 65
   257
 75
     1
175
     1
 42
1.0
 92
        8
 66
     7
 43
1.0
 76
     1
 77
     6
 78
     2
 67
     7
 79
     5
170
     0
171
     0
290
     0
174
     0
 93
        1
 44
0.0
173
     0
291
     1
 45
0.0
1001
ACAD
1000
AcDbSavedByObjectVersion
1070
     0
  0
VISUALSTYLE
  5
36
102
{ACAD_REACTORS
330
2A
102
}
330
2A
100
AcDbVisualStyle
  2
Brighten
 70
    12
 71
     2
 72
     2
 73
     0
 90
        0
 40
-0.6
 41
-30.0
 62
     5
 63
     7
 74
     1
 91
        4
 64
     7
 65
   257
 75
     1
175
     1
 42
1.0
 92
        8
 66
     7
 43
1.0
 76
     1
 77
     6
 78
     2
 67
     7
 79
     5
170
     0
171
     0
290
     0
174
     0
 93
        1
 44
50.0
173
     0
291
     1
 45
0.0
1001
ACAD
1000
AcDbSavedByObjectVersion
1070
     0
  0
VISUALSTYLE
  5
3A
102
{ACAD_REACTORS
330
2A
102
}
330
2A
100
AcDbVisualStyle
  2
ColorChange
 70
    16
 71
     2
 72
     2
 73
     3
 90
        0
 40
-0.6
 41
-30.0
 62
     5
 63
     8
 74
     1
 91
        4
 64
     7
 65
   257
 75
     1
175
     1
 42
1.0
 92
        8
 66
     8
 43
1.0
 76
     1
 77
     6
 78
     2
 67
     7
 79
     5
170
     0
171
     0
290
     0
174
     0
 93
        1
 44
0.0
173
     0
291
     1
 45
0.0
1001
ACAD
1000
AcDbSavedByObjectVersion
1070
     0
  0
VISUALSTYLE
  5
34
102
{ACAD_REACTORS
330
2A
102
}
330
2A
100
AcDbVisualStyle
  2
Conceptual
 70
     9
 71
     3
 72
     2
 73
     0
 90
        0
 40
-0.6
 41
-30.0
 62
     5
 63
     7
 74
     2
 91
        2
 64
     7
 65
   257
 75
     1
175
     1
 42
40.0
 92
        8
 66
     7
 43
1.0
 76
     1
 77
     6
 78
     2
 67
     7
 79
     3
170
     0
171
     0
290
     0
174
     0
 93
        1
 44
0.0
173
     0
291
     0
 45
0.0
1001
ACAD
1000
AcDbSavedByObjectVersion
1070
     0
  0
VISUALSTYLE
  5
35
102
{ACAD_REACTORS
330
2A
102
}
330
2A
100
AcDbVisualStyle
  2
Dim
 70
    11
 71
     2
 72
     2
 73
     0
 90
        0
 40
-0.6
 41
-30.0
 62
     5
 63
     7
 74
     1
 91
        4
 64
     7
 65
   257
 75
     1
175
     1
 42
1.0
 92
        8
 66
     7
 43
1.0
 76
     1
 77
     6
 78
     2
 67
     7
 79
     5
170
     0
171
     0
290
     0
174
     0
 93
        1
 44
-50.0
173
     0
291
     1
 45
0.0
1001
ACAD
1000
AcDbSavedByObjectVersion
1070
     0
  0
VISUALSTYLE
  5
39
102
{ACAD_REACTORS
330
2A
102
}
330
2A
100
AcDbVisualStyle
  2
Facepattern
 70
    15
 71
     2
 72
     2
 73
     0
 90
        0
 40
-0.6
 41
-30.0
 62
     5
 63
     7
 74
     1
 91
        4
 64
     7
 65
   257
 75
     1
175
     1
 42
1.0
 92
        8
 66
     7
 43
1.0
 76
     1
 77
     6
 78
     2
 67
     7
 79
     5
170
     0
171
     0
290
     0
174
     0
 93
        1
 44
0.0
173
     0
291
     1
 45
0.0
1001
ACAD
1000
AcDbSavedByObjectVersion
1070
     0
  0
VISUALSTYLE
  5
2B
102
{ACAD_REACTORS
330
2A
102
}
330
2A
100
AcDbVisualStyle
  2
Flat
 70
     0
 71
     2
 72
     1
 73
     1
 90
        2
 40
-0.6
 41
30.0
 62
     5
 63
     7
 74
     0
 91
        4
 64
     7
 65
   257
 75
     1
175
     1
 42
1.0
 92
        8
 66
     7
 43
1.0
 76
     1
 77
     6
 78
     2
 67
     7
 79
     5
170
     0
171
     0
290
     0
174
     0
 93
       13
 44
0.0
173
     0
291
     1
 45
0.0
1001
ACAD
1000
AcDbSavedByObjectVersion
1070
     0
  0
VISUALSTYLE
  5
2C
102
{ACAD_REACTORS
330
2A
102
}
330
2A
100
AcDbVisualStyle
  2
FlatWithEdges
 70
     1
 71
     2
 72
     1
 73
     1
 90
        2
 40
-0.6
 41
30.0
 62
     5
 63
     7
 74
     1
 91
        4
 64
     7
 65
   257
 75
     1
175
     1
 42
1.0
 92
        0
 66
   257
 43
1.0
 76
     1
 77
     6
 78
     2
 67
     7
 79
     5
170
     0
171
     0
290
     0
174
     0
 93
       13
 44
0.0
173
     0
291
     1
 45
0.0
1001
ACAD
1000
AcDbSavedByObjectVersion
1070
     0
  0
VISUALSTYLE
  5
2D
102
{ACAD_REACTORS
330
2A
102
}
330
2A
100
AcDbVisualStyle
  2
Gouraud
 70
     2
 71
     2
 72
     2
 73
     1
 90
        2
 40
-0.6
 41
30.0
 62
     5
 63
     7
 74
     0
 91
        4
 64
     7
 65
   257
 75
     1
175
     1
 42
1.0
 92
        0
 66
     7
 43
1.0
 76
     1
 77
     6
 78
     2
 67
     7
 79
     5
170
     0
171
     0
290
     0
174
     0
 93
       13
 44
0.0
173
     0
291
     1
 45
0.0
1001
ACAD
1000
AcDbSavedByObjectVersion
1070
     0
  0
VISUALSTYLE
  5
2E
102
{ACAD_REACTORS
330
2A
102
}
330
2A
100
AcDbVisualStyle
  2
GouraudWithEdges
 70
     3
 71
     2
 72
     2
 73
     1
 90
        2
 40
-0.6
 41
30.0
 62
     5
 63
     7
 74
     1
 91
        4
 64
     7
 65
   257
 75
     1
175
     1
 42
1.0
 92
        0
 66
   257
 43
1.0
 76
     1
 77
     6
 78
     2
 67
     7
 79
     5
170
     0
171
     0
290
     0
174
     0
 93
       13
 44
0.0
173
     0
291
     1
 45
0.0
1001
ACAD
1000
AcDbSavedByObjectVersion
1070
     0
  0
VISUALSTYLE
  5
38
102
{ACAD_REACTORS
330
2A
102
}
330
2A
100
AcDbVisualStyle
  2
Linepattern
 70
    14
 71
     2
 72
     2
 73
     0
 90
        0
 40
-0.6
 41
-30.0
 62
     5
 63
     7
 74
     1
 91
        4
 64
     7
 65
   257
 75
     7
175
     7
 42
1.0
 92
        8
 66
     7
 43
1.0
 76
     1
 77
     6
 78
     2
 67
     7
 79
     5
170
     0
171
     0
290
     0
174
     0
 93
        1
 44
0.0
173
     0
291
     1
 45
0.0
1001
ACAD
1000
AcDbSavedByObjectVersion
1070
     0
  0
VISUALSTYLE
  5
33
102
{ACAD_REACTORS
330
2A
102
}
330
2A
100
AcDbVisualStyle
  2
Realistic
 70
     8
 71
     2
 72
     2
 73
     0
 90
        0
 40
-0.6
 41
-30.0
 62
     5
 63
     7
 74
     1
 91
        0
 64
     7
 65
   257
 75
     1
175
     1
 42
1.0
 92
        8
 66
     8
 43
1.0
 76
     1
 77
     6
 78
     2
 67
     7
 79
     5
170
     0
171
     0
290
     0
174
     0
 93
       13
 44
0.0
173
     0
291
     0
 45
0.0
1001
ACAD
1000
AcDbSavedByObjectVersion
1070
     0
  0
VISUALSTYLE
  5
37
102
{ACAD_REACTORS
330
2A
102
}
330
2A
100
AcDbVisualStyle
  2
Thicken
 70
    13
 71
     2
 72
     2
 73
     0
 90
        0
 40
-0.6
 41
-30.0
 62
     5
 63
     7
 74
     1
 91
        4
 64
     7
 65
   257
 75
     1
175
     1
 42
1.0
 92
       12
 66
     7
 43
1.0
 76
     1
 77
     6
 78
     2
 67
     7
 79
     5
170
     0
171
     0
290
     0
174
     0
 93
        1
 44
0.0
173
     0
291
     1
 45
0.0
1001
ACAD
1000
AcDbSavedByObjectVersion
1070
     0
  0
XRECORD
  5
18D
102
{ACAD_REACTORS
330
184
102
}
330
184
100
AcDbXrecord
 90
        0
  0
XRECORD
  5
1A3
102
{ACAD_REACTORS
330
184
102
}
330
184
100
AcDbXrecord
1000
DSTYLE
1002
{
1070
   340
340
11
1002
}
  0
XRECORD
  5
18E
102
{ACAD_REACTORS
330
184
102
}
330
184
100
AcDbXrecord
  1
{ACA21E65-87AF-3CDB-8B6A-2201AE117A97}
  0
XRECORD
  5
187
102
{ACAD_REACTORS
330
184
102
}
330
184
100
AcDbXrecord
  1

  0
XRECORD
  5
18C
102
{ACAD_REACTORS
330
184
102
}
330
184
100
AcDbXrecord
 90
        1
  0
XRECORD
  5
189
102
{ACAD_REACTORS
330
184
102
}
330
184
100
AcDbXrecord
340
1A
  0
XRECORD
  5
18B
102
{ACAD_REACTORS
330
184
102
}
330
184
100
AcDbXrecord
 90
    10269
  0
XRECORD
  5
18A
102
{ACAD_REACTORS
330
184
102
}
330
184
100
AcDbXrecord
340
19
  0
XRECORD
  5
190
102
{ACAD_REACTORS
330
184
102
}
330
184
100
AcDbXrecord
 40
0.0
  0
XRECORD
  5
193
102
{ACAD_REACTORS
330
184
102
}
330
184
100
AcDbXrecord
340
0
  0
XRECORD
  5
199
102
{ACAD_REACTORS
330
184
102
}
330
184
100
AcDbXrecord
 10
0.0
 20
0.0
 30
0.0
  0
XRECORD
  5
195
102
{ACAD_REACTORS
330
184
102
}
330
184
100
AcDbXrecord
 10
0.0
 20
0.0
 30
0.0
  0
XRECORD
  5
198
102
{ACAD_REACTORS
330
184
102
}
330
184
100
AcDbXrecord
 10
0.0
 20
0.0
 30
0.0
  0
XRECORD
  5
196
102
{ACAD_REACTORS
330
184
102
}
330
184
100
AcDbXrecord
 10
0.0
 20
0.0
 30
0.0
  0
XRECORD
  5
197
102
{ACAD_REACTORS
330
184
102
}
330
184
100
AcDbXrecord
 10
0.0
 20
0.0
 30
0.0
  0
XRECORD
  5
194
102
{ACAD_REACTORS
330
184
102
}
330
184
100
AcDbXrecord
 10
0.0
 20
0.0
 30
0.0
  0
XRECORD
  5
191
102
{ACAD_REACTORS
330
184
102
}
330
184
100
AcDbXrecord
340
0
  0
XRECORD
  5
192
102
{ACAD_REACTORS
330
184
102
}
330
184
100
AcDbXrecord
 70
     0
  0
XRECORD
  5
188
102
{ACAD_REACTORS
330
184
102
}
330
184
100
AcDbXrecord
  1

  0
XRECORD
  5
185
102
{ACAD_REACTORS
330
184
102
}
330
184
100
AcDbXrecord
 90
        1
  0
XRECORD
  5
186
102
{ACAD_REACTORS
330
184
102
}
330
184
100
AcDbXrecord
 90
       70
  0
XRECORD
  5
19C
102
{ACAD_REACTORS
330
184
102
}
330
184
100
AcDbXrecord
340
0
  0
XRECORD
  5
1A2
102
{ACAD_REACTORS
330
184
102
}
330
184
100
AcDbXrecord
 10
0.0
 20
0.0
 30
0.0
  0
XRECORD
  5
19E
102
{ACAD_REACTORS
330
184
102
}
330
184
100
AcDbXrecord
 10
0.0
 20
0.0
 30
0.0
  0
XRECORD
  5
1A1
102
{ACAD_REACTORS
330
184
102
}
330
184
100
AcDbXrecord
 10
0.0
 20
0.0
 30
0.0
  0
XRECORD
  5
19F
102
{ACAD_REACTORS
330
184
102
}
330
184
100
AcDbXrecord
 10
0.0
 20
0.0
 30
0.0
  0
XRECORD
  5
1A0
102
{ACAD_REACTORS
330
184
102
}
330
184
100
AcDbXrecord
 10
0.0
 20
0.0
 30
0.0
  0
XRECORD
  5
19D
102
{ACAD_REACTORS
330
184
102
}
330
184
100
AcDbXrecord
 10
0.0
 20
0.0
 30
0.0
  0
XRECORD
  5
19A
102
{ACAD_REACTORS
330
184
102
}
330
184
100
AcDbXrecord
340
0
  0
XRECORD
  5
19B
102
{ACAD_REACTORS
330
184
102
}
330
184
100
AcDbXrecord
 70
     0
  0
XRECORD
  5
18F
102
{ACAD_REACTORS
330
184
102
}
330
184
100
AcDbXrecord
  1
{FAEB1C32-E019-11D5-929B-00C0DF256EC4}
  0
ENDSEC
  0
EOF
